RecursiveMono-TextSemiLightv0.0.4.ufo
<glyph name="comma" format="1">
  <advance width="600"/>
  <unicode hex="002C"/>
  <outline>
    <contour>
      <point x="232" y="-135" type="curve" smooth="yes"/>
      <point x="242" y="-145"/>
      <point x="254" y="-150"/>
      <point x="276" y="-150" type="curve" smooth="yes"/>
      <point x="289" y="-150" type="line"/>
      <point x="289" y="-84"/>
      <point x="364" y="7"/>
      <point x="364" y="81" type="curve" smooth="yes"/>
      <point x="364" y="86"/>
      <point x="362" y="90"/>
      <point x="358" y="94" type="curve" smooth="yes"/>
      <point x="347" y="105"/>
      <point x="317" y="110"/>
      <point x="295" y="110" type="curve" smooth="yes"/>
      <point x="282" y="110" type="line"/>
      <point x="282" y="36"/>
      <point x="226" y="-56"/>
      <point x="226" y="-122" type="curve" smooth="yes"/>
      <point x="226" y="-127"/>
      <point x="228" y="-131"/>
    </contour>
  </outline>
</glyph>
<glyph name="period" format="1">
  <advance width="600"/>
  <unicode hex="002E"/>
  <outline>
    <contour>
      <point x="360" y="-10" type="line"/>
      <point x="360" y="16"/>
      <point x="360" y="50"/>
      <point x="360" y="76" type="curve" smooth="yes"/>
      <point x="360" y="99"/>
      <point x="353" y="118"/>
      <point x="284" y="118" type="curve"/>
      <point x="240" y="118" type="line"/>
      <point x="240" y="91"/>
      <point x="240" y="58"/>
      <point x="240" y="31" type="curve" smooth="yes"/>
      <point x="240" y="6"/>
      <point x="247" y="-10"/>
      <point x="316" y="-10" type="curve"/>
    </contour>
  </outline>
</glyph>
<glyph name="B" format="1">
  <advance width="600"/>
  <unicode hex="0042"/>
  <outline>
    <contour>
      <point x="45" y="700" type="curve"/>
      <point x="45" y="687" type="line" smooth="yes"/>
      <point x="45" y="664"/>
      <point x="48" y="646"/>
      <point x="58" y="636" type="curve" smooth="yes"/>
      <point x="63" y="631"/>
      <point x="68" y="630"/>
      <point x="73" y="630" type="curve" smooth="yes"/>
      <point x="81" y="630"/>
      <point x="90" y="631"/>
      <point x="105" y="634" type="curve" smooth="yes"/>
      <point x="155" y="643"/>
      <point x="230" y="650"/>
      <point x="297" y="650" type="curve" smooth="yes"/>
      <point x="379" y="650"/>
      <point x="424" y="639"/>
      <point x="473" y="596" type="curve"/>
      <point x="489" y="612"/>
      <point x="490" y="643"/>
      <point x="471" y="662" type="curve" smooth="yes"/>
      <point x="426" y="707"/>
      <point x="373" y="720"/>
      <point x="292" y="720" type="curve" smooth="yes"/>
      <point x="213" y="720"/>
      <point x="140" y="715"/>
    </contour>
    <contour>
      <point x="167" y="11" type="line"/>
      <point x="167" y="179"/>
      <point x="167" y="488"/>
      <point x="167" y="657" type="curve" smooth="yes"/>
      <point x="167" y="662"/>
      <point x="165" y="666"/>
      <point x="161" y="670" type="curve" smooth="yes"/>
      <point x="152" y="679"/>
      <point x="130" y="684"/>
      <point x="108" y="684" type="curve" smooth="yes"/>
      <point x="95" y="684" type="line"/>
      <point x="95" y="569"/>
      <point x="95" y="319"/>
      <point x="95" y="204" type="curve" smooth="yes"/>
      <point x="95" y="149"/>
      <point x="95" y="95"/>
      <point x="95" y="40" type="curve" smooth="yes"/>
      <point x="95" y="26"/>
      <point x="127" y="11"/>
      <point x="154" y="11" type="curve" smooth="yes"/>
    </contour>
    <contour>
      <point x="528" y="492" type="curve" smooth="yes"/>
      <point x="528" y="534" type="line" smooth="yes"/>
      <point x="528" y="578"/>
      <point x="508" y="626"/>
      <point x="471" y="662" type="curve" smooth="yes"/>
      <point x="452" y="680"/>
      <point x="414" y="679"/>
      <point x="398" y="664" type="curve"/>
      <point x="439" y="634"/>
      <point x="458" y="595"/>
      <point x="458" y="523" type="curve" smooth="yes"/>
      <point x="458" y="498" type="line" smooth="yes"/>
      <point x="458" y="381"/>
      <point x="353" y="338"/>
      <point x="213" y="338" type="curve" smooth="yes"/>
      <point x="183" y="338"/>
      <point x="168" y="341"/>
      <point x="149" y="351" type="curve"/>
      <point x="143" y="347"/>
      <point x="141" y="340"/>
      <point x="141" y="331" type="curve" smooth="yes"/>
      <point x="141" y="303"/>
      <point x="178" y="275"/>
      <point x="208" y="275" type="curve" smooth="yes"/>
      <point x="380" y="275"/>
      <point x="528" y="342"/>
    </contour>
    <contour>
      <point x="523" y="177" type="curve" smooth="yes"/>
      <point x="523" y="215" type="line" smooth="yes"/>
      <point x="523" y="262"/>
      <point x="495" y="313"/>
      <point x="437" y="349" type="curve" smooth="yes"/>
      <point x="413" y="365"/>
      <point x="381" y="356"/>
      <point x="363" y="338" type="curve"/>
      <point x="421" y="304"/>
      <point x="453" y="281"/>
      <point x="453" y="212" type="curve" smooth="yes"/>
      <point x="453" y="187" type="line" smooth="yes"/>
      <point x="453" y="102"/>
      <point x="364" y="59"/>
      <point x="270" y="59" type="curve" smooth="yes"/>
      <point x="165" y="59"/>
      <point x="139" y="69"/>
      <point x="111" y="87" type="curve"/>
      <point x="100" y="68"/>
      <point x="95" y="51"/>
      <point x="95" y="40" type="curve" smooth="yes"/>
      <point x="95" y="15"/>
      <point x="147" y="-10"/>
      <point x="271" y="-10" type="curve" smooth="yes"/>
      <point x="404" y="-10"/>
      <point x="523" y="58"/>
    </contour>
  </outline>
</glyph>
<glyph name="C" format="1">
  <advance width="600"/>
  <unicode hex="0043"/>
  <outline>
    <contour>
      <point x="525" y="421" type="line"/>
      <point x="525" y="584" type="line" smooth="yes"/>
      <point x="525" y="617"/>
      <point x="512" y="651"/>
      <point x="486" y="676" type="curve" smooth="yes"/>
      <point x="464" y="698"/>
      <point x="437" y="691"/>
      <point x="431" y="667" type="curve"/>
      <point x="445" y="646"/>
      <point x="455" y="621"/>
      <point x="455" y="596" type="curve" smooth="yes"/>
      <point x="455" y="451" type="line" smooth="yes"/>
      <point x="455" y="445"/>
      <point x="457" y="441"/>
      <point x="461" y="438" type="curve" smooth="yes"/>
      <point x="472" y="426"/>
      <point x="489" y="421"/>
      <point x="512" y="421" type="curve" smooth="yes"/>
    </contour>
    <contour>
      <point x="395" y="720" type="curve" smooth="yes"/>
      <point x="227" y="720"/>
      <point x="74" y="505"/>
      <point x="74" y="260" type="curve" smooth="yes"/>
      <point x="74" y="229" type="line" smooth="yes"/>
      <point x="74" y="183"/>
      <point x="116" y="120"/>
      <point x="162" y="106" type="curve"/>
      <point x="148" y="154"/>
      <point x="145" y="199"/>
      <point x="145" y="228" type="curve"/>
      <point x="145" y="247" type="line"/>
      <point x="145" y="464"/>
      <point x="277" y="650"/>
      <point x="395" y="650" type="curve" smooth="yes"/>
      <point x="427" y="650"/>
      <point x="452" y="637"/>
      <point x="477" y="618" type="curve"/>
      <point x="497" y="633"/>
      <point x="505" y="657"/>
      <point x="486" y="676" type="curve"/>
      <point x="461" y="702"/>
      <point x="431" y="720"/>
    </contour>
    <contour>
      <point x="323" y="-20" type="curve" smooth="yes"/>
      <point x="456" y="-20"/>
      <point x="549" y="42"/>
      <point x="549" y="93" type="curve" smooth="yes"/>
      <point x="549" y="119"/>
      <point x="549" y="138"/>
      <point x="549" y="150" type="curve"/>
      <point x="535" y="150" type="line"/>
      <point x="486" y="82"/>
      <point x="421" y="50"/>
      <point x="323" y="50" type="curve" smooth="yes"/>
      <point x="187" y="50"/>
      <point x="131" y="154"/>
      <point x="131" y="273" type="curve"/>
      <point x="99" y="273"/>
      <point x="74" y="266"/>
      <point x="74" y="250" type="curve" smooth="yes"/>
      <point x="74" y="229" type="line" smooth="yes"/>
      <point x="74" y="91"/>
      <point x="172" y="-20"/>
    </contour>
  </outline>
</glyph>
<glyph name="D" format="1">
  <advance width="600"/>
  <unicode hex="0044"/>
  <outline>
    <contour>
      <point x="45" y="700" type="curve"/>
      <point x="45" y="687" type="line" smooth="yes"/>
      <point x="45" y="664"/>
      <point x="48" y="646"/>
      <point x="58" y="636" type="curve" smooth="yes"/>
      <point x="63" y="631"/>
      <point x="68" y="630"/>
      <point x="73" y="630" type="curve" smooth="yes"/>
      <point x="81" y="630"/>
      <point x="90" y="631"/>
      <point x="105" y="634" type="curve" smooth="yes"/>
      <point x="150" y="642"/>
      <point x="217" y="650"/>
      <point x="277" y="650" type="curve" smooth="yes"/>
      <point x="365" y="650"/>
      <point x="409" y="630"/>
      <point x="466" y="579" type="curve"/>
      <point x="477" y="590"/>
      <point x="479" y="633"/>
      <point x="459" y="654" type="curve" smooth="yes"/>
      <point x="410" y="703"/>
      <point x="357" y="720"/>
      <point x="272" y="720" type="curve" smooth="yes"/>
      <point x="199" y="720"/>
      <point x="133" y="714"/>
    </contour>
    <contour>
      <point x="167" y="15" type="curve"/>
      <point x="167" y="181"/>
      <point x="167" y="490"/>
      <point x="167" y="657" type="curve" smooth="yes"/>
      <point x="167" y="662"/>
      <point x="165" y="666"/>
      <point x="161" y="670" type="curve" smooth="yes"/>
      <point x="152" y="679"/>
      <point x="130" y="684"/>
      <point x="108" y="684" type="curve" smooth="yes"/>
      <point x="95" y="684" type="line"/>
      <point x="95" y="567"/>
      <point x="95" y="313"/>
      <point x="95" y="196" type="curve" smooth="yes"/>
      <point x="95" y="148"/>
      <point x="95" y="99"/>
      <point x="95" y="50" type="curve" smooth="yes"/>
      <point x="95" y="32"/>
      <point x="126" y="15"/>
    </contour>
    <contour>
      <point x="528" y="315" type="curve" smooth="yes"/>
      <point x="528" y="418" type="line" smooth="yes"/>
      <point x="528" y="499"/>
      <point x="516" y="597"/>
      <point x="459" y="654" type="curve" smooth="yes"/>
      <point x="440" y="673"/>
      <point x="400" y="677"/>
      <point x="379" y="657" type="curve"/>
      <point x="441" y="611"/>
      <point x="458" y="534"/>
      <point x="458" y="407" type="curve" smooth="yes"/>
      <point x="458" y="321" type="line" smooth="yes"/>
      <point x="458" y="168"/>
      <point x="372" y="61"/>
      <point x="230" y="61" type="curve" smooth="yes"/>
      <point x="182" y="61"/>
      <point x="148" y="70"/>
      <point x="108" y="89" type="curve"/>
      <point x="99" y="80"/>
      <point x="95" y="67"/>
      <point x="95" y="50" type="curve" smooth="yes"/>
      <point x="95" y="18"/>
      <point x="154" y="-10"/>
      <point x="244" y="-10" type="curve" smooth="yes"/>
      <point x="403" y="-10"/>
      <point x="528" y="122"/>
    </contour>
  </outline>
</glyph>
<glyph name="E" format="1">
  <advance width="600"/>
  <unicode hex="0045"/>
  <outline>
    <contour>
      <point x="45" y="700" type="curve"/>
      <point x="45" y="687" type="line" smooth="yes"/>
      <point x="45" y="665"/>
      <point x="49" y="645"/>
      <point x="58" y="636" type="curve" smooth="yes"/>
      <point x="62" y="632"/>
      <point x="66" y="630"/>
      <point x="71" y="630" type="curve"/>
      <point x="138" y="630"/>
      <point x="190" y="630"/>
      <point x="257" y="630" type="curve" smooth="yes"/>
      <point x="358" y="630"/>
      <point x="433" y="630"/>
      <point x="534" y="630" type="curve"/>
      <point x="534" y="643" type="line" smooth="yes"/>
      <point x="534" y="661"/>
      <point x="527" y="681"/>
      <point x="514" y="694" type="curve" smooth="yes"/>
      <point x="510" y="698"/>
      <point x="506" y="700"/>
      <point x="501" y="700" type="curve" smooth="yes"/>
      <point x="334" y="700"/>
      <point x="212" y="700"/>
    </contour>
    <contour>
      <point x="167" y="31" type="line"/>
      <point x="167" y="194"/>
      <point x="167" y="485"/>
      <point x="167" y="649" type="curve" smooth="yes"/>
      <point x="167" y="654"/>
      <point x="165" y="658"/>
      <point x="161" y="662" type="curve" smooth="yes"/>
      <point x="152" y="671"/>
      <point x="130" y="676"/>
      <point x="108" y="676" type="curve" smooth="yes"/>
      <point x="95" y="676" type="line"/>
      <point x="95" y="576"/>
      <point x="95" y="326"/>
      <point x="95" y="226" type="curve" smooth="yes"/>
      <point x="95" y="165"/>
      <point x="95" y="121"/>
      <point x="95" y="60" type="curve" smooth="yes"/>
      <point x="95" y="54"/>
      <point x="97" y="51"/>
      <point x="101" y="47" type="curve" smooth="yes"/>
      <point x="112" y="35"/>
      <point x="132" y="31"/>
      <point x="154" y="31" type="curve" smooth="yes"/>
    </contour>
    <contour>
      <point x="125" y="360" type="curve"/>
      <point x="125" y="347" type="line" smooth="yes"/>
      <point x="125" y="325"/>
      <point x="130" y="311"/>
      <point x="141" y="300" type="curve" smooth="yes"/>
      <point x="145" y="296"/>
      <point x="149" y="294"/>
      <point x="154" y="294" type="curve"/>
      <point x="200" y="294"/>
      <point x="215" y="294"/>
      <point x="261" y="294" type="curve" smooth="yes"/>
      <point x="336" y="294"/>
      <point x="385" y="294"/>
      <point x="460" y="294" type="curve"/>
      <point x="460" y="307" type="line" smooth="yes"/>
      <point x="460" y="325"/>
      <point x="455" y="341"/>
      <point x="442" y="354" type="curve" smooth="yes"/>
      <point x="438" y="358"/>
      <point x="434" y="360"/>
      <point x="429" y="360" type="curve" smooth="yes"/>
      <point x="309" y="360"/>
      <point x="245" y="360"/>
    </contour>
    <contour>
      <point x="95" y="70" type="curve"/>
      <point x="95" y="57" type="line" smooth="yes"/>
      <point x="95" y="35"/>
      <point x="100" y="17"/>
      <point x="111" y="6" type="curve" smooth="yes"/>
      <point x="115" y="2"/>
      <point x="119" y="0"/>
      <point x="124" y="0" type="curve"/>
      <point x="176" y="0"/>
      <point x="196" y="0"/>
      <point x="247" y="0" type="curve" smooth="yes"/>
      <point x="347" y="0"/>
      <point x="434" y="0"/>
      <point x="534" y="0" type="curve"/>
      <point x="534" y="13" type="line" smooth="yes"/>
      <point x="534" y="31"/>
      <point x="527" y="51"/>
      <point x="514" y="64" type="curve" smooth="yes"/>
      <point x="510" y="68"/>
      <point x="506" y="70"/>
      <point x="501" y="70" type="curve" smooth="yes"/>
      <point x="350" y="70"/>
      <point x="245" y="70"/>
    </contour>
  </outline>
</glyph>
<glyph name="F" format="1">
  <advance width="600"/>
  <unicode hex="0046"/>
  <outline>
    <contour>
      <point x="167" y="-10" type="line"/>
      <point x="167" y="158"/>
      <point x="167" y="480"/>
      <point x="167" y="649" type="curve" smooth="yes"/>
      <point x="167" y="654"/>
      <point x="165" y="658"/>
      <point x="161" y="662" type="curve" smooth="yes"/>
      <point x="152" y="671"/>
      <point x="130" y="676"/>
      <point x="108" y="676" type="curve" smooth="yes"/>
      <point x="95" y="676" type="line"/>
      <point x="95" y="576"/>
      <point x="95" y="326"/>
      <point x="95" y="226" type="curve" smooth="yes"/>
      <point x="95" y="158"/>
      <point x="95" y="88"/>
      <point x="95" y="19" type="curve" smooth="yes"/>
      <point x="95" y="14"/>
      <point x="97" y="10"/>
      <point x="101" y="6" type="curve" smooth="yes"/>
      <point x="112" y="-5"/>
      <point x="132" y="-10"/>
      <point x="154" y="-10" type="curve" smooth="yes"/>
    </contour>
    <contour>
      <point x="45" y="700" type="curve"/>
      <point x="45" y="687" type="line" smooth="yes"/>
      <point x="45" y="665"/>
      <point x="49" y="645"/>
      <point x="58" y="636" type="curve" smooth="yes"/>
      <point x="62" y="632"/>
      <point x="66" y="630"/>
      <point x="71" y="630" type="curve"/>
      <point x="138" y="630"/>
      <point x="190" y="630"/>
      <point x="257" y="630" type="curve" smooth="yes"/>
      <point x="358" y="630"/>
      <point x="433" y="630"/>
      <point x="534" y="630" type="curve"/>
      <point x="534" y="643" type="line" smooth="yes"/>
      <point x="534" y="661"/>
      <point x="527" y="681"/>
      <point x="514" y="694" type="curve" smooth="yes"/>
      <point x="510" y="698"/>
      <point x="506" y="700"/>
      <point x="501" y="700" type="curve" smooth="yes"/>
      <point x="334" y="700"/>
      <point x="212" y="700"/>
    </contour>
    <contour>
      <point x="119" y="310" type="curve"/>
      <point x="119" y="297" type="line" smooth="yes"/>
      <point x="119" y="275"/>
      <point x="124" y="257"/>
      <point x="135" y="246" type="curve" smooth="yes"/>
      <point x="139" y="242"/>
      <point x="143" y="240"/>
      <point x="148" y="240" type="curve"/>
      <point x="194" y="240"/>
      <point x="209" y="240"/>
      <point x="255" y="240" type="curve" smooth="yes"/>
      <point x="343" y="240"/>
      <point x="404" y="240"/>
      <point x="492" y="240" type="curve"/>
      <point x="492" y="253" type="line" smooth="yes"/>
      <point x="492" y="271"/>
      <point x="485" y="291"/>
      <point x="472" y="304" type="curve" smooth="yes"/>
      <point x="468" y="308"/>
      <point x="464" y="310"/>
      <point x="459" y="310" type="curve" smooth="yes"/>
      <point x="326" y="310"/>
      <point x="251" y="310"/>
    </contour>
  </outline>
</glyph>
<glyph name="G" format="1">
  <advance width="600"/>
  <unicode hex="0047"/>
  <outline>
    <contour>
      <point x="525" y="472" type="line"/>
      <point x="525" y="584" type="line" smooth="yes"/>
      <point x="525" y="617"/>
      <point x="512" y="651"/>
      <point x="486" y="676" type="curve" smooth="yes"/>
      <point x="464" y="698"/>
      <point x="437" y="691"/>
      <point x="431" y="667" type="curve"/>
      <point x="445" y="646"/>
      <point x="455" y="621"/>
      <point x="455" y="596" type="curve" smooth="yes"/>
      <point x="455" y="501" type="line" smooth="yes"/>
      <point x="455" y="496"/>
      <point x="457" y="492"/>
      <point x="461" y="488" type="curve" smooth="yes"/>
      <point x="472" y="477"/>
      <point x="489" y="472"/>
      <point x="512" y="472" type="curve" smooth="yes"/>
    </contour>
    <contour>
      <point x="384" y="720" type="curve" smooth="yes"/>
      <point x="227" y="720"/>
      <point x="74" y="605"/>
      <point x="74" y="356" type="curve" smooth="yes"/>
      <point x="74" y="229" type="line" smooth="yes"/>
      <point x="74" y="183"/>
      <point x="116" y="120"/>
      <point x="162" y="106" type="curve"/>
      <point x="147" y="154"/>
      <point x="145" y="199"/>
      <point x="145" y="228" type="curve" smooth="yes"/>
      <point x="145" y="353" type="line" smooth="yes"/>
      <point x="145" y="560"/>
      <point x="271" y="652"/>
      <point x="384" y="652" type="curve" smooth="yes"/>
      <point x="427" y="652"/>
      <point x="452" y="639"/>
      <point x="477" y="620" type="curve"/>
      <point x="497" y="635"/>
      <point x="505" y="657"/>
      <point x="486" y="676" type="curve"/>
      <point x="461" y="702"/>
      <point x="431" y="720"/>
    </contour>
    <contour>
      <point x="323" y="-20" type="curve" smooth="yes"/>
      <point x="441" y="-20"/>
      <point x="525" y="54"/>
      <point x="525" y="174" type="curve" smooth="yes"/>
      <point x="525" y="213"/>
      <point x="511" y="237"/>
      <point x="491" y="258" type="curve" smooth="yes"/>
      <point x="485" y="264"/>
      <point x="472" y="268"/>
      <point x="461" y="268" type="curve"/>
      <point x="467" y="245"/>
      <point x="469" y="223"/>
      <point x="469" y="203" type="curve" smooth="yes"/>
      <point x="469" y="91"/>
      <point x="397" y="50"/>
      <point x="323" y="50" type="curve" smooth="yes"/>
      <point x="187" y="50"/>
      <point x="135" y="155"/>
      <point x="135" y="286" type="curve"/>
      <point x="102" y="286"/>
      <point x="74" y="282"/>
      <point x="74" y="266" type="curve" smooth="yes"/>
      <point x="74" y="229" type="line" smooth="yes"/>
      <point x="74" y="91"/>
      <point x="172" y="-20"/>
    </contour>
    <contour>
      <point x="297" y="311" type="curve"/>
      <point x="297" y="298" type="line" smooth="yes"/>
      <point x="297" y="276"/>
      <point x="302" y="262"/>
      <point x="313" y="251" type="curve" smooth="yes"/>
      <point x="317" y="247"/>
      <point x="321" y="245"/>
      <point x="326" y="245" type="curve"/>
      <point x="372" y="245"/>
      <point x="347" y="245"/>
      <point x="393" y="245" type="curve" smooth="yes"/>
      <point x="462" y="245"/>
      <point x="503" y="245"/>
      <point x="572" y="245" type="curve"/>
      <point x="572" y="258" type="line" smooth="yes"/>
      <point x="572" y="276"/>
      <point x="567" y="292"/>
      <point x="554" y="305" type="curve" smooth="yes"/>
      <point x="550" y="309"/>
      <point x="546" y="311"/>
      <point x="541" y="311" type="curve" smooth="yes"/>
      <point x="429" y="311"/>
      <point x="408" y="311"/>
    </contour>
  </outline>
</glyph>
<glyph name="H" format="1">
  <advance width="600"/>
  <unicode hex="0048"/>
  <outline>
    <contour>
      <point x="167" y="-10" type="line"/>
      <point x="167" y="164"/>
      <point x="167" y="509"/>
      <point x="167" y="683" type="curve" smooth="yes"/>
      <point x="167" y="688"/>
      <point x="165" y="692"/>
      <point x="161" y="696" type="curve" smooth="yes"/>
      <point x="152" y="705"/>
      <point x="130" y="710"/>
      <point x="108" y="710" type="curve" smooth="yes"/>
      <point x="95" y="710" type="line"/>
      <point x="95" y="605"/>
      <point x="95" y="331"/>
      <point x="95" y="226" type="curve" smooth="yes"/>
      <point x="95" y="158"/>
      <point x="95" y="88"/>
      <point x="95" y="19" type="curve" smooth="yes"/>
      <point x="95" y="14"/>
      <point x="97" y="10"/>
      <point x="101" y="6" type="curve" smooth="yes"/>
      <point x="112" y="-5"/>
      <point x="132" y="-10"/>
      <point x="154" y="-10" type="curve" smooth="yes"/>
    </contour>
    <contour>
      <point x="507" y="-10" type="line"/>
      <point x="507" y="164"/>
      <point x="507" y="509"/>
      <point x="507" y="683" type="curve" smooth="yes"/>
      <point x="507" y="688"/>
      <point x="505" y="692"/>
      <point x="501" y="696" type="curve" smooth="yes"/>
      <point x="492" y="705"/>
      <point x="470" y="710"/>
      <point x="448" y="710" type="curve" smooth="yes"/>
      <point x="435" y="710" type="line"/>
      <point x="435" y="605"/>
      <point x="435" y="331"/>
      <point x="435" y="226" type="curve" smooth="yes"/>
      <point x="435" y="158"/>
      <point x="435" y="88"/>
      <point x="435" y="19" type="curve" smooth="yes"/>
      <point x="435" y="14"/>
      <point x="437" y="10"/>
      <point x="441" y="6" type="curve" smooth="yes"/>
      <point x="452" y="-5"/>
      <point x="472" y="-10"/>
      <point x="494" y="-10" type="curve" smooth="yes"/>
    </contour>
    <contour>
      <point x="45" y="320" type="curve"/>
      <point x="45" y="307" type="line" smooth="yes"/>
      <point x="45" y="285"/>
      <point x="50" y="267"/>
      <point x="61" y="256" type="curve" smooth="yes"/>
      <point x="65" y="252"/>
      <point x="69" y="250"/>
      <point x="74" y="250" type="curve"/>
      <point x="141" y="250"/>
      <point x="190" y="250"/>
      <point x="257" y="250" type="curve"/>
      <point x="342" y="250"/>
      <point x="399" y="250"/>
      <point x="484" y="250" type="curve"/>
      <point x="484" y="263" type="line" smooth="yes"/>
      <point x="484" y="281"/>
      <point x="477" y="301"/>
      <point x="464" y="314" type="curve" smooth="yes"/>
      <point x="460" y="318"/>
      <point x="456" y="320"/>
      <point x="451" y="320" type="curve" smooth="yes"/>
      <point x="300" y="320"/>
      <point x="196" y="320"/>
    </contour>
  </outline>
</glyph>
<glyph name="I" format="1">
  <advance width="600"/>
  <unicode hex="0049"/>
  <outline>
    <contour>
      <point x="66" y="700" type="curve"/>
      <point x="66" y="687" type="line" smooth="yes"/>
      <point x="66" y="665"/>
      <point x="71" y="647"/>
      <point x="82" y="636" type="curve" smooth="yes"/>
      <point x="86" y="632"/>
      <point x="90" y="630"/>
      <point x="95" y="630" type="curve"/>
      <point x="156" y="630"/>
      <point x="196" y="630"/>
      <point x="257" y="630" type="curve"/>
      <point x="358" y="630"/>
      <point x="433" y="630"/>
      <point x="534" y="630" type="curve"/>
      <point x="534" y="643" type="line" smooth="yes"/>
      <point x="534" y="661"/>
      <point x="527" y="681"/>
      <point x="514" y="694" type="curve" smooth="yes"/>
      <point x="510" y="698"/>
      <point x="506" y="700"/>
      <point x="501" y="700" type="curve" smooth="yes"/>
      <point x="340" y="700"/>
      <point x="226" y="700"/>
    </contour>
    <contour>
      <point x="335" y="24" type="line"/>
      <point x="335" y="187"/>
      <point x="335" y="486"/>
      <point x="335" y="649" type="curve" smooth="yes"/>
      <point x="335" y="654"/>
      <point x="333" y="658"/>
      <point x="329" y="662" type="curve" smooth="yes"/>
      <point x="320" y="671"/>
      <point x="298" y="676"/>
      <point x="276" y="676" type="curve" smooth="yes"/>
      <point x="263" y="676" type="line"/>
      <point x="263" y="576"/>
      <point x="263" y="326"/>
      <point x="263" y="226" type="curve" smooth="yes"/>
      <point x="263" y="166"/>
      <point x="263" y="114"/>
      <point x="263" y="53" type="curve" smooth="yes"/>
      <point x="263" y="48"/>
      <point x="265" y="44"/>
      <point x="269" y="40" type="curve" smooth="yes"/>
      <point x="280" y="29"/>
      <point x="300" y="24"/>
      <point x="322" y="24" type="curve" smooth="yes"/>
    </contour>
    <contour>
      <point x="66" y="70" type="curve"/>
      <point x="66" y="57" type="line" smooth="yes"/>
      <point x="66" y="35"/>
      <point x="71" y="17"/>
      <point x="82" y="6" type="curve" smooth="yes"/>
      <point x="86" y="2"/>
      <point x="90" y="0"/>
      <point x="95" y="0" type="curve"/>
      <point x="156" y="0"/>
      <point x="196" y="0"/>
      <point x="257" y="0" type="curve"/>
      <point x="358" y="0"/>
      <point x="433" y="0"/>
      <point x="534" y="0" type="curve"/>
      <point x="534" y="13" type="line" smooth="yes"/>
      <point x="534" y="31"/>
      <point x="527" y="51"/>
      <point x="514" y="64" type="curve" smooth="yes"/>
      <point x="510" y="68"/>
      <point x="506" y="70"/>
      <point x="501" y="70" type="curve" smooth="yes"/>
      <point x="340" y="70"/>
      <point x="226" y="70"/>
    </contour>
  </outline>
</glyph>
<glyph name="L" format="1">
  <advance width="600"/>
  <unicode hex="004C"/>
  <outline>
    <contour>
      <point x="165" y="31" type="line"/>
      <point x="165" y="200"/>
      <point x="165" y="514"/>
      <point x="165" y="683" type="curve" smooth="yes"/>
      <point x="165" y="688"/>
      <point x="163" y="692"/>
      <point x="159" y="696" type="curve" smooth="yes"/>
      <point x="150" y="705"/>
      <point x="128" y="710"/>
      <point x="106" y="710" type="curve" smooth="yes"/>
      <point x="93" y="710" type="line"/>
      <point x="93" y="605"/>
      <point x="93" y="331"/>
      <point x="93" y="226" type="curve" smooth="yes"/>
      <point x="93" y="165"/>
      <point x="93" y="121"/>
      <point x="93" y="60" type="curve" smooth="yes"/>
      <point x="93" y="54"/>
      <point x="95" y="51"/>
      <point x="99" y="47" type="curve" smooth="yes"/>
      <point x="110" y="35"/>
      <point x="130" y="31"/>
      <point x="152" y="31" type="curve" smooth="yes"/>
    </contour>
    <contour>
      <point x="93" y="70" type="curve"/>
      <point x="93" y="57" type="line" smooth="yes"/>
      <point x="93" y="35"/>
      <point x="98" y="17"/>
      <point x="109" y="6" type="curve" smooth="yes"/>
      <point x="113" y="2"/>
      <point x="117" y="0"/>
      <point x="122" y="0" type="curve"/>
      <point x="174" y="0"/>
      <point x="194" y="0"/>
      <point x="245" y="0" type="curve" smooth="yes"/>
      <point x="347" y="0"/>
      <point x="436" y="0"/>
      <point x="538" y="0" type="curve"/>
      <point x="538" y="13" type="line" smooth="yes"/>
      <point x="538" y="31"/>
      <point x="531" y="51"/>
      <point x="518" y="64" type="curve" smooth="yes"/>
      <point x="514" y="68"/>
      <point x="510" y="70"/>
      <point x="505" y="70" type="curve" smooth="yes"/>
      <point x="353" y="70"/>
      <point x="245" y="70"/>
    </contour>
  </outline>
</glyph>
<glyph name="P" format="1">
  <advance width="600"/>
  <unicode hex="0050"/>
  <outline>
    <contour>
      <point x="45" y="700" type="curve"/>
      <point x="45" y="687" type="line" smooth="yes"/>
      <point x="45" y="664"/>
      <point x="48" y="646"/>
      <point x="58" y="636" type="curve" smooth="yes"/>
      <point x="63" y="631"/>
      <point x="68" y="630"/>
      <point x="73" y="630" type="curve" smooth="yes"/>
      <point x="81" y="630"/>
      <point x="90" y="631"/>
      <point x="105" y="634" type="curve" smooth="yes"/>
      <point x="155" y="643"/>
      <point x="230" y="650"/>
      <point x="297" y="650" type="curve" smooth="yes"/>
      <point x="379" y="650"/>
      <point x="421" y="634"/>
      <point x="473" y="588" type="curve"/>
      <point x="489" y="604"/>
      <point x="490" y="635"/>
      <point x="471" y="654" type="curve" smooth="yes"/>
      <point x="423" y="702"/>
      <point x="373" y="720"/>
      <point x="292" y="720" type="curve" smooth="yes"/>
      <point x="213" y="720"/>
      <point x="140" y="716"/>
    </contour>
    <contour>
      <point x="167" y="-10" type="line"/>
      <point x="167" y="164"/>
      <point x="167" y="483"/>
      <point x="167" y="657" type="curve" smooth="yes"/>
      <point x="167" y="662"/>
      <point x="165" y="666"/>
      <point x="161" y="670" type="curve" smooth="yes"/>
      <point x="152" y="679"/>
      <point x="130" y="684"/>
      <point x="108" y="684" type="curve" smooth="yes"/>
      <point x="95" y="684" type="line"/>
      <point x="95" y="567"/>
      <point x="95" y="313"/>
      <point x="95" y="196" type="curve" smooth="yes"/>
      <point x="95" y="138"/>
      <point x="95" y="78"/>
      <point x="95" y="19" type="curve" smooth="yes"/>
      <point x="95" y="14"/>
      <point x="97" y="10"/>
      <point x="101" y="6" type="curve" smooth="yes"/>
      <point x="112" y="-5"/>
      <point x="132" y="-10"/>
      <point x="154" y="-10" type="curve" smooth="yes"/>
    </contour>
    <contour>
      <point x="528" y="462" type="curve" smooth="yes"/>
      <point x="528" y="526" type="line" smooth="yes"/>
      <point x="528" y="570"/>
      <point x="508" y="618"/>
      <point x="471" y="654" type="curve" smooth="yes"/>
      <point x="452" y="672"/>
      <point x="414" y="671"/>
      <point x="398" y="656" type="curve"/>
      <point x="439" y="626"/>
      <point x="458" y="587"/>
      <point x="458" y="515" type="curve" smooth="yes"/>
      <point x="458" y="468" type="line" smooth="yes"/>
      <point x="458" y="342"/>
      <point x="343" y="248"/>
      <point x="187" y="248" type="curve" smooth="yes"/>
      <point x="174" y="248"/>
      <point x="165" y="248"/>
      <point x="154" y="250" type="curve"/>
      <point x="149" y="246"/>
      <point x="147" y="240"/>
      <point x="147" y="233" type="curve" smooth="yes"/>
      <point x="147" y="207"/>
      <point x="188" y="177"/>
      <point x="220" y="177" type="curve" smooth="yes"/>
      <point x="385" y="177"/>
      <point x="528" y="296"/>
    </contour>
  </outline>
</glyph>
<glyph name="R" format="1">
  <advance width="600"/>
  <unicode hex="0052"/>
  <outline>
    <contour>
      <point x="45" y="700" type="curve"/>
      <point x="45" y="687" type="line" smooth="yes"/>
      <point x="45" y="664"/>
      <point x="48" y="646"/>
      <point x="58" y="636" type="curve" smooth="yes"/>
      <point x="63" y="631"/>
      <point x="68" y="630"/>
      <point x="73" y="630" type="curve" smooth="yes"/>
      <point x="81" y="630"/>
      <point x="90" y="631"/>
      <point x="105" y="634" type="curve" smooth="yes"/>
      <point x="155" y="643"/>
      <point x="230" y="650"/>
      <point x="297" y="650" type="curve" smooth="yes"/>
      <point x="379" y="650"/>
      <point x="421" y="634"/>
      <point x="473" y="588" type="curve"/>
      <point x="489" y="604"/>
      <point x="490" y="635"/>
      <point x="471" y="654" type="curve" smooth="yes"/>
      <point x="423" y="702"/>
      <point x="373" y="720"/>
      <point x="292" y="720" type="curve" smooth="yes"/>
      <point x="213" y="720"/>
      <point x="140" y="715"/>
    </contour>
    <contour>
      <point x="167" y="-10" type="line"/>
      <point x="167" y="164"/>
      <point x="167" y="483"/>
      <point x="167" y="657" type="curve" smooth="yes"/>
      <point x="167" y="662"/>
      <point x="165" y="666"/>
      <point x="161" y="670" type="curve" smooth="yes"/>
      <point x="152" y="679"/>
      <point x="130" y="684"/>
      <point x="108" y="684" type="curve" smooth="yes"/>
      <point x="95" y="684" type="line"/>
      <point x="95" y="567"/>
      <point x="95" y="313"/>
      <point x="95" y="196" type="curve" smooth="yes"/>
      <point x="95" y="138"/>
      <point x="95" y="78"/>
      <point x="95" y="19" type="curve" smooth="yes"/>
      <point x="95" y="14"/>
      <point x="97" y="10"/>
      <point x="101" y="6" type="curve" smooth="yes"/>
      <point x="112" y="-5"/>
      <point x="132" y="-10"/>
      <point x="154" y="-10" type="curve" smooth="yes"/>
    </contour>
    <contour>
      <point x="528" y="484" type="curve" smooth="yes"/>
      <point x="528" y="526" type="line" smooth="yes"/>
      <point x="528" y="570"/>
      <point x="508" y="618"/>
      <point x="471" y="654" type="curve" smooth="yes"/>
      <point x="452" y="672"/>
      <point x="414" y="671"/>
      <point x="398" y="656" type="curve"/>
      <point x="439" y="626"/>
      <point x="458" y="587"/>
      <point x="458" y="515" type="curve" smooth="yes"/>
      <point x="458" y="490" type="line" smooth="yes"/>
      <point x="458" y="358"/>
      <point x="340" y="260"/>
      <point x="181" y="260" type="curve" smooth="yes"/>
      <point x="168" y="260"/>
      <point x="159" y="261"/>
      <point x="149" y="264" type="curve"/>
      <point x="143" y="259"/>
      <point x="141" y="253"/>
      <point x="141" y="245" type="curve" smooth="yes"/>
      <point x="141" y="220"/>
      <point x="178" y="195"/>
      <point x="208" y="195" type="curve" smooth="yes"/>
      <point x="380" y="195"/>
      <point x="528" y="319"/>
    </contour>
    <contour>
      <point x="311" y="265" type="line"/>
      <point x="275" y="242"/>
      <point x="257" y="220"/>
      <point x="265" y="209" type="curve" smooth="yes"/>
      <point x="384" y="55" type="line" smooth="yes"/>
      <point x="425" y="1"/>
      <point x="459" y="-20"/>
      <point x="501" y="-20" type="curve" smooth="yes"/>
      <point x="533" y="-20"/>
      <point x="554" y="-4"/>
      <point x="554" y="19" type="curve" smooth="yes"/>
      <point x="554" y="70" type="line"/>
      <point x="543" y="70" type="line"/>
      <point x="536" y="61"/>
      <point x="520" y="54"/>
      <point x="508" y="54" type="curve" smooth="yes"/>
      <point x="482" y="54"/>
      <point x="461" y="68"/>
      <point x="437" y="100" type="curve" smooth="yes"/>
    </contour>
  </outline>
</glyph>
<glyph name="S" format="1">
  <advance width="600"/>
  <unicode hex="0053"/>
  <outline>
    <contour>
      <point x="373" y="298" type="curve" smooth="yes"/>
      <point x="286" y="330" type="line" smooth="yes"/>
      <point x="168" y="373"/>
      <point x="154" y="401"/>
      <point x="154" y="441" type="curve" smooth="yes"/>
      <point x="154" y="459"/>
      <point x="156" y="478"/>
      <point x="162" y="506" type="curve"/>
      <point x="124" y="498"/>
      <point x="86" y="476"/>
      <point x="86" y="428" type="curve" smooth="yes"/>
      <point x="86" y="362"/>
      <point x="129" y="322"/>
      <point x="267" y="271" type="curve" smooth="yes"/>
      <point x="354" y="239" type="line" smooth="yes"/>
      <point x="455" y="201"/>
      <point x="479" y="167"/>
      <point x="480" y="105" type="curve"/>
      <point x="501" y="105"/>
      <point x="529" y="130"/>
      <point x="529" y="156" type="curve"/>
      <point x="529" y="213"/>
      <point x="482" y="258"/>
    </contour>
    <contour>
      <point x="300" y="-20" type="curve" smooth="yes"/>
      <point x="440" y="-20"/>
      <point x="529" y="38"/>
      <point x="529" y="123" type="curve" smooth="yes"/>
      <point x="529" y="156" type="line" smooth="yes"/>
      <point x="529" y="169"/>
      <point x="508" y="175"/>
      <point x="483" y="175" type="curve"/>
      <point x="478" y="90"/>
      <point x="420" y="50"/>
      <point x="300" y="50" type="curve" smooth="yes"/>
      <point x="201" y="50"/>
      <point x="136" y="84"/>
      <point x="85" y="150" type="curve"/>
      <point x="72" y="150" type="line"/>
      <point x="72" y="138"/>
      <point x="72" y="119"/>
      <point x="72" y="93" type="curve" smooth="yes"/>
      <point x="72" y="42"/>
      <point x="166" y="-20"/>
    </contour>
    <contour>
      <point x="395" y="720" type="curve" smooth="yes"/>
      <point x="269" y="720"/>
      <point x="86" y="564"/>
      <point x="86" y="458" type="curve" smooth="yes"/>
      <point x="86" y="428" type="line" smooth="yes"/>
      <point x="86" y="399"/>
      <point x="127" y="379"/>
      <point x="159" y="375" type="curve"/>
      <point x="154" y="397"/>
      <point x="154" y="418"/>
      <point x="154" y="441" type="curve" smooth="yes"/>
      <point x="154" y="522"/>
      <point x="303" y="653"/>
      <point x="395" y="653" type="curve" smooth="yes"/>
      <point x="421" y="653"/>
      <point x="443" y="649"/>
      <point x="465" y="635" type="curve"/>
      <point x="487" y="650"/>
      <point x="496" y="669"/>
      <point x="476" y="689" type="curve"/>
      <point x="455" y="710"/>
      <point x="423" y="720"/>
    </contour>
    <contour>
      <point x="505" y="450" type="line"/>
      <point x="505" y="611" type="line" smooth="yes"/>
      <point x="505" y="643"/>
      <point x="498" y="667"/>
      <point x="476" y="689" type="curve" smooth="yes"/>
      <point x="455" y="709"/>
      <point x="427" y="706"/>
      <point x="420" y="681" type="curve"/>
      <point x="433" y="660"/>
      <point x="435" y="645"/>
      <point x="435" y="620" type="curve" smooth="yes"/>
      <point x="435" y="479" type="line" smooth="yes"/>
      <point x="435" y="474"/>
      <point x="437" y="470"/>
      <point x="441" y="466" type="curve" smooth="yes"/>
      <point x="452" y="455"/>
      <point x="469" y="450"/>
      <point x="492" y="450" type="curve" smooth="yes"/>
    </contour>
  </outline>
</glyph>
<glyph name="T" format="1">
  <advance width="600"/>
  <unicode hex="0054"/>
  <outline>
    <contour>
      <point x="336" y="-11" type="line"/>
      <point x="336" y="157"/>
      <point x="336" y="480"/>
      <point x="336" y="649" type="curve" smooth="yes"/>
      <point x="336" y="654"/>
      <point x="334" y="658"/>
      <point x="330" y="662" type="curve" smooth="yes"/>
      <point x="321" y="671"/>
      <point x="299" y="676"/>
      <point x="277" y="676" type="curve" smooth="yes"/>
      <point x="264" y="676" type="line"/>
      <point x="264" y="576"/>
      <point x="264" y="316"/>
      <point x="264" y="216" type="curve" smooth="yes"/>
      <point x="264" y="148"/>
      <point x="264" y="87"/>
      <point x="264" y="18" type="curve" smooth="yes"/>
      <point x="264" y="13"/>
      <point x="266" y="9"/>
      <point x="270" y="5" type="curve" smooth="yes"/>
      <point x="281" y="-6"/>
      <point x="301" y="-11"/>
      <point x="323" y="-11" type="curve" smooth="yes"/>
    </contour>
    <contour>
      <point x="46" y="700" type="curve"/>
      <point x="46" y="687" type="line" smooth="yes"/>
      <point x="46" y="665"/>
      <point x="51" y="647"/>
      <point x="62" y="636" type="curve" smooth="yes"/>
      <point x="66" y="632"/>
      <point x="70" y="630"/>
      <point x="75" y="630" type="curve"/>
      <point x="142" y="630"/>
      <point x="178" y="630"/>
      <point x="245" y="630" type="curve"/>
      <point x="352" y="630"/>
      <point x="447" y="630"/>
      <point x="554" y="630" type="curve"/>
      <point x="554" y="643" type="line" smooth="yes"/>
      <point x="554" y="661"/>
      <point x="547" y="681"/>
      <point x="534" y="694" type="curve" smooth="yes"/>
      <point x="530" y="698"/>
      <point x="526" y="700"/>
      <point x="521" y="700" type="curve" smooth="yes"/>
      <point x="348" y="700"/>
      <point x="219" y="700"/>
    </contour>
  </outline>
</glyph>
<glyph name="a" format="1">
  <advance width="600"/>
  <unicode hex="0061"/>
  <outline>
    <contour>
      <point x="261" y="530" type="curve" smooth="yes"/>
      <point x="197" y="530"/>
      <point x="116" y="515"/>
      <point x="103" y="502" type="curve" smooth="yes"/>
      <point x="98" y="497"/>
      <point x="97" y="492"/>
      <point x="97" y="484" type="curve"/>
      <point x="97" y="436" type="line"/>
      <point x="109" y="436" type="line"/>
      <point x="152" y="452"/>
      <point x="217" y="462"/>
      <point x="276" y="462" type="curve" smooth="yes"/>
      <point x="353" y="462"/>
      <point x="384" y="454"/>
      <point x="434" y="426" type="curve"/>
      <point x="448" y="443"/>
      <point x="455" y="459"/>
      <point x="425" y="489" type="curve"/>
      <point x="393" y="520"/>
      <point x="340" y="530"/>
    </contour>
    <contour>
      <point x="377" y="488" type="curve"/>
      <point x="409" y="423"/>
      <point x="411" y="387"/>
      <point x="409" y="314" type="curve" smooth="yes"/>
      <point x="409" y="234"/>
      <point x="409" y="175"/>
      <point x="409" y="111" type="curve" smooth="yes"/>
      <point x="409" y="65"/>
      <point x="416" y="45"/>
      <point x="437" y="24" type="curve"/>
      <point x="454" y="6"/>
      <point x="490" y="7"/>
      <point x="500" y="24" type="curve"/>
      <point x="483" y="52"/>
      <point x="480" y="70"/>
      <point x="480" y="104" type="curve" smooth="yes"/>
      <point x="480" y="187"/>
      <point x="480" y="225"/>
      <point x="480" y="335" type="curve" smooth="yes"/>
      <point x="480" y="398"/>
      <point x="466" y="447"/>
      <point x="425" y="489" type="curve"/>
      <point x="411" y="502"/>
      <point x="389" y="496"/>
    </contour>
    <contour>
      <point x="433" y="256" type="curve" smooth="yes"/>
      <point x="416" y="273"/>
      <point x="350" y="284"/>
      <point x="262" y="284" type="curve" smooth="yes"/>
      <point x="187" y="284"/>
      <point x="145" y="272"/>
      <point x="118" y="245" type="curve" smooth="yes"/>
      <point x="100" y="228"/>
      <point x="98" y="207"/>
      <point x="103" y="189" type="curve"/>
      <point x="146" y="218"/>
      <point x="182" y="225"/>
      <point x="245" y="225" type="curve" smooth="yes"/>
      <point x="315" y="225"/>
      <point x="386" y="223"/>
      <point x="445" y="212" type="curve"/>
      <point x="446" y="233"/>
      <point x="443" y="246"/>
    </contour>
    <contour>
      <point x="140" y="126" type="curve" smooth="yes"/>
      <point x="140" y="151" type="line" smooth="yes"/>
      <point x="140" y="215"/>
      <point x="148" y="230"/>
      <point x="185" y="259" type="curve"/>
      <point x="160" y="267"/>
      <point x="129" y="256"/>
      <point x="118" y="245" type="curve" smooth="yes"/>
      <point x="79" y="207"/>
      <point x="70" y="187"/>
      <point x="70" y="148" type="curve" smooth="yes"/>
      <point x="70" y="120" type="line" smooth="yes"/>
      <point x="70" y="25"/>
      <point x="114" y="-20"/>
      <point x="196" y="-20" type="curve" smooth="yes"/>
      <point x="298" y="-20"/>
      <point x="378" y="30"/>
      <point x="417" y="95" type="curve" smooth="yes"/>
      <point x="427" y="111"/>
      <point x="431" y="126"/>
      <point x="431" y="161" type="curve"/>
      <point x="363" y="76"/>
      <point x="297" y="49"/>
      <point x="226" y="49" type="curve" smooth="yes"/>
      <point x="204" y="49" type="line" smooth="yes"/>
      <point x="161" y="49"/>
      <point x="140" y="71"/>
    </contour>
    <contour>
      <point x="504" y="-10" type="curve" smooth="yes"/>
      <point x="542" y="-10"/>
      <point x="559" y="4"/>
      <point x="559" y="34" type="curve"/>
      <point x="559" y="70" type="line"/>
      <point x="546" y="70" type="line"/>
      <point x="535" y="67"/>
      <point x="523" y="62"/>
      <point x="507" y="62" type="curve" smooth="yes"/>
      <point x="485" y="62"/>
      <point x="462" y="65"/>
      <point x="438" y="72" type="curve"/>
      <point x="426" y="61"/>
      <point x="426" y="35"/>
      <point x="437" y="24" type="curve"/>
      <point x="454" y="7"/>
      <point x="480" y="-10"/>
    </contour>
  </outline>
</glyph>
<glyph name="b" format="1">
  <advance width="600"/>
  <unicode hex="0062"/>
  <outline>
    <contour>
      <point x="165" y="-10" type="line"/>
      <point x="165" y="190"/>
      <point x="165" y="535"/>
      <point x="165" y="725" type="curve" smooth="yes"/>
      <point x="165" y="730"/>
      <point x="163" y="734"/>
      <point x="159" y="738" type="curve" smooth="yes"/>
      <point x="150" y="747"/>
      <point x="128" y="752"/>
      <point x="106" y="752" type="curve" smooth="yes"/>
      <point x="93" y="752" type="line"/>
      <point x="93" y="611"/>
      <point x="93" y="519"/>
      <point x="93" y="378" type="curve" smooth="yes"/>
      <point x="93" y="312"/>
      <point x="93" y="85"/>
      <point x="93" y="19" type="curve" smooth="yes"/>
      <point x="93" y="14"/>
      <point x="95" y="10"/>
      <point x="99" y="6" type="curve" smooth="yes"/>
      <point x="110" y="-5"/>
      <point x="130" y="-10"/>
      <point x="152" y="-10" type="curve" smooth="yes"/>
    </contour>
    <contour>
      <point x="374" y="528" type="curve" smooth="yes"/>
      <point x="293" y="528"/>
      <point x="214" y="477"/>
      <point x="161" y="406" type="curve" smooth="yes"/>
      <point x="142" y="382"/>
      <point x="136" y="360"/>
      <point x="137" y="327" type="curve"/>
      <point x="234" y="427"/>
      <point x="291" y="456"/>
      <point x="371" y="456" type="curve" smooth="yes"/>
      <point x="435" y="456"/>
      <point x="483" y="397"/>
      <point x="496" y="307" type="curve"/>
      <point x="530" y="310"/>
      <point x="540" y="321"/>
      <point x="540" y="331" type="curve" smooth="yes"/>
      <point x="540" y="442"/>
      <point x="460" y="528"/>
    </contour>
    <contour>
      <point x="316" y="-20" type="curve" smooth="yes"/>
      <point x="464" y="-20"/>
      <point x="540" y="97"/>
      <point x="540" y="296" type="curve" smooth="yes"/>
      <point x="540" y="331" type="line" smooth="yes"/>
      <point x="540" y="379"/>
      <point x="500" y="451"/>
      <point x="465" y="451" type="curve"/>
      <point x="448" y="451"/>
      <point x="436" y="448"/>
      <point x="435" y="438" type="curve"/>
      <point x="456" y="398"/>
      <point x="467" y="370"/>
      <point x="467" y="319" type="curve" smooth="yes"/>
      <point x="467" y="296" type="line" smooth="yes"/>
      <point x="467" y="137"/>
      <point x="411" y="49"/>
      <point x="298" y="49" type="curve" smooth="yes"/>
      <point x="240" y="49"/>
      <point x="203" y="71"/>
      <point x="156" y="119" type="curve"/>
      <point x="150" y="119"/>
      <point x="148" y="114"/>
      <point x="148" y="108" type="curve"/>
      <point x="148" y="58"/>
      <point x="232" y="-20"/>
    </contour>
  </outline>
</glyph>
<glyph name="c" format="1">
  <advance width="600"/>
  <unicode hex="0063"/>
  <outline>
    <contour>
      <point x="361" y="530" type="curve" smooth="yes"/>
      <point x="208" y="530"/>
      <point x="70" y="416"/>
      <point x="70" y="233" type="curve" smooth="yes"/>
      <point x="70" y="203" type="line" smooth="yes"/>
      <point x="70" y="143"/>
      <point x="95" y="80"/>
      <point x="132" y="43" type="curve" smooth="yes"/>
      <point x="144" y="31"/>
      <point x="180" y="26"/>
      <point x="191" y="39" type="curve"/>
      <point x="160" y="91"/>
      <point x="138" y="139"/>
      <point x="138" y="190" type="curve" smooth="yes"/>
      <point x="138" y="218" type="line" smooth="yes"/>
      <point x="138" y="349"/>
      <point x="227" y="460"/>
      <point x="359" y="460" type="curve" smooth="yes"/>
      <point x="424" y="460"/>
      <point x="461" y="438"/>
      <point x="485" y="411" type="curve"/>
      <point x="506" y="427"/>
      <point x="515" y="449"/>
      <point x="486" y="479" type="curve"/>
      <point x="448" y="517"/>
      <point x="422" y="530"/>
    </contour>
    <contour>
      <point x="131" y="106" type="curve"/>
      <point x="121" y="98"/>
      <point x="106" y="69"/>
      <point x="132" y="43" type="curve" smooth="yes"/>
      <point x="171" y="3"/>
      <point x="209" y="-20"/>
      <point x="274" y="-20" type="curve" smooth="yes"/>
      <point x="315" y="-20" type="line" smooth="yes"/>
      <point x="415" y="-20"/>
      <point x="477" y="2"/>
      <point x="511" y="36" type="curve" smooth="yes"/>
      <point x="522" y="47"/>
      <point x="523" y="55"/>
      <point x="523" y="67" type="curve" smooth="yes"/>
      <point x="523" y="82"/>
      <point x="523" y="100"/>
      <point x="523" y="115" type="curve"/>
      <point x="510" y="115" type="line"/>
      <point x="459" y="62"/>
      <point x="395" y="50"/>
      <point x="300" y="50" type="curve" smooth="yes"/>
      <point x="215" y="50"/>
      <point x="176" y="64"/>
    </contour>
    <contour>
      <point x="525" y="292" type="line"/>
      <point x="525" y="391" type="line" smooth="yes"/>
      <point x="525" y="425"/>
      <point x="515" y="450"/>
      <point x="486" y="479" type="curve" smooth="yes"/>
      <point x="466" y="498"/>
      <point x="434" y="490"/>
      <point x="423" y="479" type="curve"/>
      <point x="444" y="459"/>
      <point x="455" y="423"/>
      <point x="455" y="393" type="curve" smooth="yes"/>
      <point x="455" y="321" type="line" smooth="yes"/>
      <point x="455" y="316"/>
      <point x="457" y="312"/>
      <point x="461" y="308" type="curve" smooth="yes"/>
      <point x="472" y="297"/>
      <point x="489" y="292"/>
      <point x="512" y="292" type="curve" smooth="yes"/>
    </contour>
  </outline>
</glyph>
<glyph name="d" format="1">
  <advance width="600"/>
  <unicode hex="0064"/>
  <outline>
    <contour>
      <point x="298" y="530" type="curve" smooth="yes"/>
      <point x="152" y="530"/>
      <point x="68" y="404"/>
      <point x="68" y="212" type="curve" smooth="yes"/>
      <point x="68" y="183" type="line" smooth="yes"/>
      <point x="68" y="138"/>
      <point x="100" y="70"/>
      <point x="133" y="70" type="curve"/>
      <point x="146" y="70"/>
      <point x="155" y="73"/>
      <point x="157" y="83" type="curve"/>
      <point x="148" y="112"/>
      <point x="141" y="146"/>
      <point x="141" y="199" type="curve" smooth="yes"/>
      <point x="141" y="220" type="line" smooth="yes"/>
      <point x="141" y="359"/>
      <point x="197" y="463"/>
      <point x="309" y="463" type="curve" smooth="yes"/>
      <point x="368" y="463"/>
      <point x="406" y="442"/>
      <point x="452" y="417" type="curve"/>
      <point x="459" y="418"/>
      <point x="461" y="428"/>
      <point x="459" y="436" type="curve"/>
      <point x="453" y="472"/>
      <point x="374" y="530"/>
    </contour>
    <contour>
      <point x="507" y="-10" type="line"/>
      <point x="507" y="191"/>
      <point x="507" y="541"/>
      <point x="507" y="733" type="curve" smooth="yes"/>
      <point x="507" y="738"/>
      <point x="505" y="742"/>
      <point x="501" y="746" type="curve" smooth="yes"/>
      <point x="492" y="755"/>
      <point x="470" y="760"/>
      <point x="448" y="760" type="curve" smooth="yes"/>
      <point x="435" y="760" type="line"/>
      <point x="435" y="620"/>
      <point x="435" y="530"/>
      <point x="435" y="390" type="curve" smooth="yes"/>
      <point x="435" y="320"/>
      <point x="435" y="89"/>
      <point x="435" y="19" type="curve" smooth="yes"/>
      <point x="435" y="14"/>
      <point x="437" y="10"/>
      <point x="441" y="6" type="curve" smooth="yes"/>
      <point x="452" y="-5"/>
      <point x="472" y="-10"/>
      <point x="494" y="-10" type="curve" smooth="yes"/>
    </contour>
    <contour>
      <point x="226" y="-18" type="curve" smooth="yes"/>
      <point x="306" y="-18"/>
      <point x="387" y="35"/>
      <point x="439" y="104" type="curve" smooth="yes"/>
      <point x="458" y="128"/>
      <point x="464" y="150"/>
      <point x="463" y="183" type="curve"/>
      <point x="366" y="83"/>
      <point x="309" y="54"/>
      <point x="229" y="54" type="curve" smooth="yes"/>
      <point x="157" y="54"/>
      <point x="125" y="132"/>
      <point x="106" y="226" type="curve"/>
      <point x="76" y="223"/>
      <point x="68" y="203"/>
      <point x="68" y="183" type="curve" smooth="yes"/>
      <point x="68" y="81"/>
      <point x="124" y="-18"/>
    </contour>
  </outline>
</glyph>
<glyph name="e" format="1">
  <advance width="600"/>
  <unicode hex="0065"/>
  <outline>
    <contour>
      <point x="346" y="530" type="curve"/>
      <point x="190" y="530"/>
      <point x="70" y="458"/>
      <point x="70" y="261" type="curve" smooth="yes"/>
      <point x="70" y="201" type="line"/>
      <point x="70" y="136"/>
      <point x="92" y="85"/>
      <point x="129" y="48" type="curve"/>
      <point x="141" y="35"/>
      <point x="167" y="35"/>
      <point x="183" y="48" type="curve"/>
      <point x="154" y="97"/>
      <point x="138" y="138"/>
      <point x="138" y="190" type="curve" smooth="yes"/>
      <point x="138" y="258" type="line" smooth="yes"/>
      <point x="138" y="401"/>
      <point x="207" y="460"/>
      <point x="342" y="460" type="curve" smooth="yes"/>
      <point x="406" y="460"/>
      <point x="452" y="447"/>
      <point x="474" y="398" type="curve"/>
      <point x="489" y="398"/>
      <point x="497" y="408"/>
      <point x="497" y="421" type="curve"/>
      <point x="497" y="484"/>
      <point x="414" y="530"/>
    </contour>
    <contour>
      <point x="359" y="215" type="line" smooth="yes"/>
      <point x="487" y="215"/>
      <point x="530" y="274"/>
      <point x="530" y="348" type="curve" smooth="yes"/>
      <point x="530" y="385" type="line" smooth="yes"/>
      <point x="530" y="463"/>
      <point x="455" y="530"/>
      <point x="363" y="530" type="curve" smooth="yes"/>
      <point x="346" y="530" type="line" smooth="yes"/>
      <point x="324" y="530"/>
      <point x="310" y="515"/>
      <point x="310" y="492" type="curve"/>
      <point x="384" y="492"/>
      <point x="460" y="458"/>
      <point x="460" y="379" type="curve" smooth="yes"/>
      <point x="460" y="352" type="line" smooth="yes"/>
      <point x="460" y="292"/>
      <point x="427" y="275"/>
      <point x="348" y="275" type="curve" smooth="yes"/>
      <point x="252" y="275"/>
      <point x="201" y="275"/>
      <point x="118" y="275" type="curve"/>
      <point x="118" y="270"/>
      <point x="118" y="265"/>
      <point x="121" y="261" type="curve"/>
      <point x="131" y="240"/>
      <point x="180" y="215"/>
      <point x="238" y="215" type="curve" smooth="yes"/>
    </contour>
    <contour>
      <point x="110" y="155" type="curve"/>
      <point x="88" y="132"/>
      <point x="97" y="79"/>
      <point x="129" y="48" type="curve"/>
      <point x="172" y="4"/>
      <point x="222" y="-20"/>
      <point x="293" y="-20" type="curve" smooth="yes"/>
      <point x="311" y="-20" type="line" smooth="yes"/>
      <point x="407" y="-20"/>
      <point x="483" y="6"/>
      <point x="511" y="39" type="curve" smooth="yes"/>
      <point x="521" y="50"/>
      <point x="523" y="59"/>
      <point x="523" y="71" type="curve"/>
      <point x="523" y="78"/>
      <point x="523" y="108"/>
      <point x="523" y="115" type="curve"/>
      <point x="510" y="115" type="line"/>
      <point x="459" y="62"/>
      <point x="395" y="50"/>
      <point x="300" y="50" type="curve" smooth="yes"/>
      <point x="207" y="50"/>
      <point x="155" y="76"/>
    </contour>
  </outline>
</glyph>
<glyph name="f" format="1">
  <advance width="600"/>
  <unicode hex="0066"/>
  <outline>
    <contour>
      <point x="252" y="634" type="curve"/>
      <point x="287" y="673"/>
      <point x="324" y="688"/>
      <point x="400" y="688" type="curve" smooth="yes"/>
      <point x="457" y="688"/>
      <point x="507" y="673"/>
      <point x="542" y="655" type="curve"/>
      <point x="555" y="655" type="line"/>
      <point x="555" y="673" type="line"/>
      <point x="555" y="698"/>
      <point x="550" y="713"/>
      <point x="543" y="720" type="curve" smooth="yes"/>
      <point x="531" y="733"/>
      <point x="473" y="755"/>
      <point x="414" y="755" type="curve"/>
      <point x="402" y="755" type="line"/>
      <point x="336" y="755"/>
      <point x="289" y="744"/>
      <point x="245" y="700" type="curve" smooth="yes"/>
      <point x="228" y="684"/>
      <point x="232" y="653"/>
    </contour>
    <contour>
      <point x="265" y="-10" type="line"/>
      <point x="265" y="177"/>
      <point x="265" y="351"/>
      <point x="265" y="500" type="curve" smooth="yes"/>
      <point x="262" y="600"/>
      <point x="258" y="638"/>
      <point x="304" y="705" type="curve"/>
      <point x="287" y="718"/>
      <point x="258" y="713"/>
      <point x="245" y="700" type="curve" smooth="yes"/>
      <point x="210" y="666"/>
      <point x="195" y="629"/>
      <point x="195" y="553" type="curve"/>
      <point x="195" y="410"/>
      <point x="195" y="215"/>
      <point x="195" y="19" type="curve"/>
      <point x="195" y="14"/>
      <point x="197" y="10"/>
      <point x="201" y="6" type="curve" smooth="yes"/>
      <point x="212" y="-5"/>
      <point x="230" y="-10"/>
      <point x="252" y="-10" type="curve" smooth="yes"/>
    </contour>
    <contour>
      <point x="45" y="460" type="curve"/>
      <point x="45" y="447" type="line" smooth="yes"/>
      <point x="45" y="424"/>
      <point x="50" y="407"/>
      <point x="61" y="396" type="curve" smooth="yes"/>
      <point x="65" y="392"/>
      <point x="69" y="390"/>
      <point x="74" y="390" type="curve"/>
      <point x="136" y="390"/>
      <point x="201" y="390"/>
      <point x="262" y="390" type="curve"/>
      <point x="338" y="390"/>
      <point x="437" y="390"/>
      <point x="510" y="390" type="curve"/>
      <point x="510" y="403" type="line" smooth="yes"/>
      <point x="510" y="426"/>
      <point x="505" y="443"/>
      <point x="494" y="454" type="curve" smooth="yes"/>
      <point x="490" y="458"/>
      <point x="486" y="460"/>
      <point x="481" y="460" type="curve" smooth="yes"/>
      <point x="347" y="460"/>
      <point x="179" y="460"/>
    </contour>
  </outline>
</glyph>
<glyph name="g" format="1">
  <advance width="600"/>
  <unicode hex="0067"/>
  <outline>
    <contour>
      <point x="311" y="465" type="curve" smooth="yes"/>
      <point x="370" y="465"/>
      <point x="428" y="452"/>
      <point x="456" y="424" type="curve"/>
      <point x="474" y="446"/>
      <point x="474" y="475"/>
      <point x="460" y="489" type="curve" smooth="yes"/>
      <point x="428" y="521"/>
      <point x="355" y="530"/>
      <point x="303" y="530" type="curve" smooth="yes"/>
      <point x="177" y="530"/>
      <point x="76" y="460"/>
      <point x="76" y="352" type="curve" smooth="yes"/>
      <point x="76" y="323" type="line" smooth="yes"/>
      <point x="76" y="271"/>
      <point x="94" y="241"/>
      <point x="132" y="203" type="curve" smooth="yes"/>
      <point x="141" y="193"/>
      <point x="189" y="194"/>
      <point x="195" y="201" type="curve"/>
      <point x="161" y="239"/>
      <point x="144" y="264"/>
      <point x="144" y="309" type="curve" smooth="yes"/>
      <point x="144" y="330" type="line" smooth="yes"/>
      <point x="144" y="423"/>
      <point x="208" y="465"/>
    </contour>
    <contour>
      <point x="297" y="213" type="curve" smooth="yes"/>
      <point x="230" y="213"/>
      <point x="187" y="220"/>
      <point x="131" y="258" type="curve"/>
      <point x="118" y="237"/>
      <point x="113" y="222"/>
      <point x="132" y="203" type="curve" smooth="yes"/>
      <point x="177" y="157"/>
      <point x="227" y="147"/>
      <point x="309" y="147" type="curve" smooth="yes"/>
      <point x="440" y="147"/>
      <point x="524" y="231"/>
      <point x="524" y="338" type="curve" smooth="yes"/>
      <point x="524" y="367" type="line" smooth="yes"/>
      <point x="524" y="410"/>
      <point x="507" y="442"/>
      <point x="460" y="489" type="curve" smooth="yes"/>
      <point x="446" y="503"/>
      <point x="406" y="503"/>
      <point x="387" y="488" type="curve"/>
      <point x="437" y="447"/>
      <point x="456" y="417"/>
      <point x="456" y="365" type="curve" smooth="yes"/>
      <point x="456" y="337" type="line" smooth="yes"/>
      <point x="456" y="265"/>
      <point x="394" y="213"/>
    </contour>
    <contour>
      <point x="190" y="65" type="curve" smooth="yes"/>
      <point x="190" y="52" type="line" smooth="yes"/>
      <point x="190" y="-3"/>
      <point x="227" y="-32"/>
      <point x="294" y="-32" type="curve" smooth="yes"/>
      <point x="423" y="-32" type="line" smooth="yes"/>
      <point x="460" y="-32"/>
      <point x="485" y="-63"/>
      <point x="485" y="-103" type="curve" smooth="yes"/>
      <point x="485" y="-125" type="line" smooth="yes"/>
      <point x="485" y="-164"/>
      <point x="480" y="-174"/>
      <point x="460" y="-200" type="curve"/>
      <point x="471" y="-206"/>
      <point x="500" y="-205"/>
      <point x="509" y="-196" type="curve" smooth="yes"/>
      <point x="541" y="-163"/>
      <point x="555" y="-140"/>
      <point x="555" y="-100" type="curve" smooth="yes"/>
      <point x="555" y="-84" type="line" smooth="yes"/>
      <point x="555" y="-17"/>
      <point x="501" y="35"/>
      <point x="431" y="35" type="curve" smooth="yes"/>
      <point x="289" y="35" type="line" smooth="yes"/>
      <point x="265" y="35"/>
      <point x="258" y="42"/>
      <point x="258" y="66" type="curve" smooth="yes"/>
      <point x="258" y="88" type="line" smooth="yes"/>
      <point x="258" y="116"/>
      <point x="271" y="154"/>
      <point x="286" y="169" type="curve"/>
      <point x="286" y="175"/>
      <point x="283" y="178"/>
      <point x="274" y="180" type="curve" smooth="yes"/>
      <point x="247" y="180"/>
      <point x="190" y="113"/>
    </contour>
    <contour>
      <point x="521" y="-140" type="curve"/>
      <point x="453" y="-186"/>
      <point x="410" y="-190"/>
      <point x="329" y="-190" type="curve"/>
      <point x="234" y="-190" type="line"/>
      <point x="157" y="-190"/>
      <point x="115" y="-167"/>
      <point x="115" y="-119" type="curve" smooth="yes"/>
      <point x="115" y="-94" type="line" smooth="yes"/>
      <point x="115" y="-59"/>
      <point x="143" y="-17"/>
      <point x="232" y="8" type="curve"/>
      <point x="232" y="21"/>
      <point x="226" y="33"/>
      <point x="214" y="33" type="curve"/>
      <point x="117" y="33"/>
      <point x="46" y="-27"/>
      <point x="46" y="-106" type="curve" smooth="yes"/>
      <point x="46" y="-129" type="line" smooth="yes"/>
      <point x="46" y="-195"/>
      <point x="117" y="-250"/>
      <point x="217" y="-250" type="curve"/>
      <point x="288" y="-250" type="line"/>
      <point x="392" y="-250"/>
      <point x="469" y="-236"/>
      <point x="509" y="-196" type="curve"/>
      <point x="525" y="-179"/>
      <point x="532" y="-150"/>
    </contour>
    <contour>
      <point x="448" y="471" type="curve" smooth="yes"/>
      <point x="515" y="535" type="line" smooth="yes"/>
      <point x="542" y="560"/>
      <point x="555" y="571"/>
      <point x="555" y="604" type="curve" smooth="yes"/>
      <point x="555" y="606"/>
      <point x="555" y="613"/>
      <point x="555" y="616" type="curve" smooth="yes"/>
      <point x="555" y="621"/>
      <point x="553" y="625"/>
      <point x="549" y="629" type="curve" smooth="yes"/>
      <point x="538" y="640"/>
      <point x="519" y="645"/>
      <point x="496" y="645" type="curve" smooth="yes"/>
      <point x="485" y="645" type="line"/>
      <point x="485" y="642"/>
      <point x="485" y="631"/>
      <point x="485" y="628" type="curve" smooth="yes"/>
      <point x="485" y="608"/>
      <point x="479" y="596"/>
      <point x="470" y="579" type="curve" smooth="yes"/>
      <point x="419" y="477" type="line"/>
      <point x="425" y="468"/>
      <point x="440" y="463"/>
    </contour>
  </outline>
</glyph>
<glyph name="h" format="1">
  <advance width="600"/>
  <unicode hex="0068"/>
  <outline>
    <contour>
      <point x="165" y="-10" type="line"/>
      <point x="165" y="154"/>
      <point x="165" y="570"/>
      <point x="165" y="725" type="curve" smooth="yes"/>
      <point x="165" y="730"/>
      <point x="163" y="734"/>
      <point x="159" y="738" type="curve" smooth="yes"/>
      <point x="150" y="747"/>
      <point x="128" y="752"/>
      <point x="106" y="752" type="curve" smooth="yes"/>
      <point x="93" y="752" type="line"/>
      <point x="93" y="644"/>
      <point x="93" y="296"/>
      <point x="93" y="188" type="curve" smooth="yes"/>
      <point x="93" y="132"/>
      <point x="93" y="75"/>
      <point x="93" y="19" type="curve" smooth="yes"/>
      <point x="93" y="14"/>
      <point x="95" y="10"/>
      <point x="99" y="6" type="curve" smooth="yes"/>
      <point x="110" y="-5"/>
      <point x="130" y="-10"/>
      <point x="152" y="-10" type="curve" smooth="yes"/>
    </contour>
    <contour>
      <point x="380" y="528" type="curve" smooth="yes"/>
      <point x="298" y="528"/>
      <point x="213" y="475"/>
      <point x="161" y="406" type="curve" smooth="yes"/>
      <point x="142" y="382"/>
      <point x="136" y="360"/>
      <point x="137" y="327" type="curve"/>
      <point x="237" y="434"/>
      <point x="295" y="458"/>
      <point x="377" y="458" type="curve" smooth="yes"/>
      <point x="414" y="458"/>
      <point x="452" y="436"/>
      <point x="480" y="390" type="curve"/>
      <point x="498" y="394"/>
      <point x="507" y="405"/>
      <point x="507" y="416" type="curve" smooth="yes"/>
      <point x="507" y="462"/>
      <point x="441" y="528"/>
    </contour>
    <contour>
      <point x="507" y="-10" type="line"/>
      <point x="507" y="149"/>
      <point x="507" y="257"/>
      <point x="507" y="416" type="curve" smooth="yes"/>
      <point x="507" y="422"/>
      <point x="505" y="425"/>
      <point x="501" y="429" type="curve" smooth="yes"/>
      <point x="490" y="441"/>
      <point x="470" y="445"/>
      <point x="448" y="445" type="curve" smooth="yes"/>
      <point x="435" y="445" type="line"/>
      <point x="435" y="343"/>
      <point x="435" y="290"/>
      <point x="435" y="188" type="curve" smooth="yes"/>
      <point x="435" y="132"/>
      <point x="435" y="75"/>
      <point x="435" y="19" type="curve" smooth="yes"/>
      <point x="435" y="14"/>
      <point x="437" y="10"/>
      <point x="441" y="6" type="curve" smooth="yes"/>
      <point x="452" y="-5"/>
      <point x="472" y="-10"/>
      <point x="494" y="-10" type="curve" smooth="yes"/>
    </contour>
  </outline>
</glyph>
<glyph name="i" format="1">
  <advance width="600"/>
  <unicode hex="0069"/>
  <outline>
    <contour>
      <point x="46" y="510" type="curve"/>
      <point x="46" y="497" type="line" smooth="yes"/>
      <point x="46" y="475"/>
      <point x="51" y="457"/>
      <point x="62" y="446" type="curve" smooth="yes"/>
      <point x="66" y="442"/>
      <point x="70" y="440"/>
      <point x="75" y="440" type="curve"/>
      <point x="118" y="440"/>
      <point x="158" y="440"/>
      <point x="200" y="440" type="curve"/>
      <point x="226" y="440"/>
      <point x="255" y="440"/>
      <point x="279" y="440" type="curve"/>
      <point x="279" y="453" type="line" smooth="yes"/>
      <point x="279" y="475"/>
      <point x="274" y="493"/>
      <point x="262" y="504" type="curve" smooth="yes"/>
      <point x="259" y="508"/>
      <point x="255" y="510"/>
      <point x="249" y="510" type="curve" smooth="yes"/>
      <point x="185" y="510"/>
      <point x="110" y="510"/>
    </contour>
    <contour>
      <point x="310" y="494" type="curve" smooth="yes"/>
      <point x="299" y="505"/>
      <point x="281" y="510"/>
      <point x="259" y="510" type="curve" smooth="yes"/>
      <point x="246" y="510" type="line"/>
      <point x="246" y="130" type="line" smooth="yes"/>
      <point x="246" y="85"/>
      <point x="264" y="52"/>
      <point x="293" y="23" type="curve"/>
      <point x="310" y="7"/>
      <point x="345" y="15"/>
      <point x="348" y="22" type="curve"/>
      <point x="322" y="68"/>
      <point x="316" y="99"/>
      <point x="316" y="161" type="curve" smooth="yes"/>
      <point x="316" y="481" type="line" smooth="yes"/>
      <point x="316" y="486"/>
      <point x="314" y="490"/>
    </contour>
    <contour>
      <point x="564" y="102" type="line"/>
      <point x="552" y="102" type="line"/>
      <point x="516" y="63"/>
      <point x="475" y="50"/>
      <point x="424" y="50" type="curve" smooth="yes"/>
      <point x="369" y="50"/>
      <point x="331" y="53"/>
      <point x="290" y="95" type="curve"/>
      <point x="282" y="90"/>
      <point x="273" y="43"/>
      <point x="293" y="23" type="curve" smooth="yes"/>
      <point x="329" y="-13"/>
      <point x="368" y="-20"/>
      <point x="418" y="-20" type="curve" smooth="yes"/>
      <point x="467" y="-20"/>
      <point x="520" y="-10"/>
      <point x="547" y="17" type="curve" smooth="yes"/>
      <point x="559" y="28"/>
      <point x="564" y="43"/>
      <point x="564" y="61" type="curve"/>
    </contour>
    <contour>
      <point x="328" y="609" type="line"/>
      <point x="328" y="629"/>
      <point x="328" y="657"/>
      <point x="328" y="677" type="curve" smooth="yes"/>
      <point x="328" y="684"/>
      <point x="327" y="687"/>
      <point x="320" y="694" type="curve" smooth="yes"/>
      <point x="307" y="707"/>
      <point x="293" y="714"/>
      <point x="265" y="714" type="curve"/>
      <point x="228" y="714" type="line"/>
      <point x="228" y="693"/>
      <point x="228" y="667"/>
      <point x="228" y="646" type="curve" smooth="yes"/>
      <point x="228" y="639"/>
      <point x="229" y="636"/>
      <point x="236" y="629" type="curve" smooth="yes"/>
      <point x="249" y="616"/>
      <point x="264" y="609"/>
      <point x="291" y="609" type="curve"/>
    </contour>
  </outline>
</glyph>
<glyph name="j" format="1">
  <advance width="600"/>
  <unicode hex="006A"/>
  <outline>
    <contour>
      <point x="50" y="510" type="curve"/>
      <point x="50" y="497" type="line" smooth="yes"/>
      <point x="50" y="475"/>
      <point x="55" y="457"/>
      <point x="66" y="446" type="curve" smooth="yes"/>
      <point x="70" y="442"/>
      <point x="74" y="440"/>
      <point x="79" y="440" type="curve"/>
      <point x="142" y="440"/>
      <point x="239" y="440"/>
      <point x="302" y="440" type="curve"/>
      <point x="333" y="440"/>
      <point x="369" y="440"/>
      <point x="397" y="440" type="curve"/>
      <point x="397" y="453" type="line" smooth="yes"/>
      <point x="397" y="475"/>
      <point x="392" y="493"/>
      <point x="380" y="504" type="curve" smooth="yes"/>
      <point x="377" y="508"/>
      <point x="373" y="510"/>
      <point x="367" y="510" type="curve" smooth="yes"/>
      <point x="279" y="510"/>
      <point x="139" y="510"/>
    </contour>
    <contour>
      <point x="220" y="-250" type="line"/>
      <point x="310" y="-250"/>
      <point x="430" y="-184"/>
      <point x="430" y="0" type="curve" smooth="yes"/>
      <point x="430" y="160"/>
      <point x="430" y="323"/>
      <point x="430" y="483" type="curve" smooth="yes"/>
      <point x="430" y="488"/>
      <point x="428" y="492"/>
      <point x="424" y="496" type="curve" smooth="yes"/>
      <point x="415" y="505"/>
      <point x="395" y="510"/>
      <point x="373" y="510" type="curve" smooth="yes"/>
      <point x="360" y="510" type="line"/>
      <point x="360" y="410"/>
      <point x="360" y="266"/>
      <point x="360" y="208" type="curve"/>
      <point x="360" y="139"/>
      <point x="360" y="69"/>
      <point x="360" y="0" type="curve" smooth="yes"/>
      <point x="360" y="-130"/>
      <point x="291" y="-180"/>
      <point x="178" y="-188" type="curve"/>
      <point x="178" y="-229"/>
      <point x="191" y="-250"/>
      <point x="205" y="-250" type="curve" smooth="yes"/>
    </contour>
    <contour>
      <point x="54" y="-180" type="curve"/>
      <point x="54" y="-193" type="line" smooth="yes"/>
      <point x="54" y="-215"/>
      <point x="59" y="-233"/>
      <point x="70" y="-244" type="curve" smooth="yes"/>
      <point x="74" y="-248"/>
      <point x="78" y="-250"/>
      <point x="83" y="-250" type="curve"/>
      <point x="177" y="-250"/>
      <point x="128" y="-250"/>
      <point x="220" y="-250" type="curve" smooth="yes"/>
      <point x="262" y="-250"/>
      <point x="294" y="-215"/>
      <point x="293" y="-180" type="curve"/>
      <point x="175" y="-180"/>
      <point x="170" y="-180"/>
    </contour>
    <contour>
      <point x="440" y="609" type="line"/>
      <point x="440" y="629"/>
      <point x="440" y="657"/>
      <point x="440" y="677" type="curve" smooth="yes"/>
      <point x="440" y="684"/>
      <point x="439" y="687"/>
      <point x="432" y="694" type="curve" smooth="yes"/>
      <point x="419" y="707"/>
      <point x="405" y="714"/>
      <point x="377" y="714" type="curve"/>
      <point x="340" y="714" type="line"/>
      <point x="340" y="693"/>
      <point x="340" y="667"/>
      <point x="340" y="646" type="curve" smooth="yes"/>
      <point x="340" y="639"/>
      <point x="341" y="636"/>
      <point x="348" y="629" type="curve" smooth="yes"/>
      <point x="361" y="616"/>
      <point x="376" y="609"/>
      <point x="403" y="609" type="curve"/>
    </contour>
  </outline>
</glyph>
<glyph name="k" format="1">
  <advance width="600"/>
  <unicode hex="006B"/>
  <outline>
    <contour>
      <point x="163" y="-10" type="line"/>
      <point x="163" y="154"/>
      <point x="163" y="570"/>
      <point x="163" y="725" type="curve" smooth="yes"/>
      <point x="163" y="730"/>
      <point x="161" y="734"/>
      <point x="157" y="738" type="curve" smooth="yes"/>
      <point x="148" y="747"/>
      <point x="128" y="752"/>
      <point x="106" y="752" type="curve" smooth="yes"/>
      <point x="93" y="752" type="line"/>
      <point x="93" y="644"/>
      <point x="93" y="296"/>
      <point x="93" y="188" type="curve" smooth="yes"/>
      <point x="93" y="132"/>
      <point x="93" y="75"/>
      <point x="93" y="19" type="curve" smooth="yes"/>
      <point x="93" y="14"/>
      <point x="95" y="10"/>
      <point x="99" y="6" type="curve" smooth="yes"/>
      <point x="110" y="-5"/>
      <point x="128" y="-10"/>
      <point x="150" y="-10" type="curve" smooth="yes"/>
    </contour>
    <contour>
      <point x="295" y="265" type="line"/>
      <point x="263" y="240"/>
      <point x="251" y="215"/>
      <point x="260" y="204" type="curve" smooth="yes"/>
      <point x="384" y="53" type="line" smooth="yes"/>
      <point x="429" y="-2"/>
      <point x="460" y="-20"/>
      <point x="502" y="-20" type="curve" smooth="yes"/>
      <point x="528" y="-20"/>
      <point x="550" y="-5"/>
      <point x="550" y="14" type="curve" smooth="yes"/>
      <point x="550" y="70" type="line"/>
      <point x="537" y="70" type="line"/>
      <point x="529" y="61"/>
      <point x="513" y="54"/>
      <point x="500" y="54" type="curve" smooth="yes"/>
      <point x="476" y="54"/>
      <point x="456" y="66"/>
      <point x="433" y="95" type="curve" smooth="yes"/>
    </contour>
    <contour>
      <point x="467" y="520" type="curve" smooth="yes"/>
      <point x="454" y="520" type="line"/>
      <point x="378" y="346"/>
      <point x="267" y="252"/>
      <point x="123" y="206" type="curve"/>
      <point x="123" y="172"/>
      <point x="134" y="155"/>
      <point x="149" y="159" type="curve" smooth="yes"/>
      <point x="297" y="193"/>
      <point x="423" y="289"/>
      <point x="511" y="467" type="curve" smooth="yes"/>
      <point x="517" y="479"/>
      <point x="520" y="486"/>
      <point x="520" y="490" type="curve" smooth="yes"/>
      <point x="520" y="504"/>
      <point x="502" y="520"/>
    </contour>
  </outline>
</glyph>
<glyph name="l" format="1">
  <advance width="600"/>
  <unicode hex="006C"/>
  <outline>
    <contour>
      <point x="46" y="750" type="curve"/>
      <point x="46" y="737" type="line" smooth="yes"/>
      <point x="46" y="715"/>
      <point x="51" y="697"/>
      <point x="62" y="686" type="curve" smooth="yes"/>
      <point x="66" y="682"/>
      <point x="70" y="680"/>
      <point x="75" y="680" type="curve"/>
      <point x="142" y="680"/>
      <point x="216" y="680"/>
      <point x="277" y="680" type="curve"/>
      <point x="277" y="693" type="line" smooth="yes"/>
      <point x="277" y="715"/>
      <point x="272" y="733"/>
      <point x="260" y="744" type="curve" smooth="yes"/>
      <point x="257" y="748"/>
      <point x="253" y="750"/>
      <point x="247" y="750" type="curve" smooth="yes"/>
      <point x="184" y="750"/>
      <point x="110" y="750"/>
    </contour>
    <contour>
      <point x="308" y="734" type="curve" smooth="yes"/>
      <point x="297" y="745"/>
      <point x="279" y="750"/>
      <point x="257" y="750" type="curve" smooth="yes"/>
      <point x="244" y="750" type="line"/>
      <point x="244" y="130" type="line" smooth="yes"/>
      <point x="244" y="85"/>
      <point x="262" y="52"/>
      <point x="291" y="23" type="curve"/>
      <point x="308" y="7"/>
      <point x="343" y="15"/>
      <point x="346" y="22" type="curve"/>
      <point x="320" y="68"/>
      <point x="314" y="99"/>
      <point x="314" y="161" type="curve" smooth="yes"/>
      <point x="314" y="721" type="line" smooth="yes"/>
      <point x="314" y="726"/>
      <point x="312" y="730"/>
    </contour>
    <contour>
      <point x="564" y="102" type="line"/>
      <point x="552" y="102" type="line"/>
      <point x="516" y="63"/>
      <point x="475" y="50"/>
      <point x="424" y="50" type="curve" smooth="yes"/>
      <point x="368" y="50"/>
      <point x="329" y="53"/>
      <point x="288" y="95" type="curve"/>
      <point x="280" y="90"/>
      <point x="271" y="43"/>
      <point x="291" y="23" type="curve" smooth="yes"/>
      <point x="328" y="-13"/>
      <point x="367" y="-20"/>
      <point x="418" y="-20" type="curve" smooth="yes"/>
      <point x="467" y="-20"/>
      <point x="520" y="-10"/>
      <point x="547" y="17" type="curve" smooth="yes"/>
      <point x="559" y="28"/>
      <point x="564" y="43"/>
      <point x="564" y="61" type="curve"/>
    </contour>
  </outline>
</glyph>
<glyph name="m" format="1">
  <advance width="600"/>
  <unicode hex="006D"/>
  <outline>
    <contour>
      <point x="119" y="-10" type="line"/>
      <point x="119" y="153"/>
      <point x="119" y="318"/>
      <point x="119" y="482" type="curve" smooth="yes"/>
      <point x="119" y="490"/>
      <point x="115" y="497"/>
      <point x="108" y="504" type="curve" smooth="yes"/>
      <point x="97" y="515"/>
      <point x="81" y="520"/>
      <point x="63" y="520" type="curve" smooth="yes"/>
      <point x="50" y="520" type="line"/>
      <point x="50" y="410"/>
      <point x="50" y="298"/>
      <point x="50" y="188" type="curve" smooth="yes"/>
      <point x="50" y="132"/>
      <point x="50" y="75"/>
      <point x="50" y="19" type="curve" smooth="yes"/>
      <point x="50" y="14"/>
      <point x="52" y="10"/>
      <point x="56" y="6" type="curve" smooth="yes"/>
      <point x="67" y="-5"/>
      <point x="82" y="-10"/>
      <point x="104" y="-10" type="curve" smooth="yes"/>
    </contour>
    <contour>
      <point x="253" y="528" type="curve" smooth="yes"/>
      <point x="207" y="528"/>
      <point x="165" y="497"/>
      <point x="119" y="430" type="curve" smooth="yes"/>
      <point x="101" y="403"/>
      <point x="103" y="381"/>
      <point x="107" y="359" type="curve"/>
      <point x="162" y="429"/>
      <point x="202" y="457"/>
      <point x="236" y="457" type="curve" smooth="yes"/>
      <point x="264" y="457"/>
      <point x="281" y="441"/>
      <point x="301" y="414" type="curve"/>
      <point x="323" y="418"/>
      <point x="328" y="433"/>
      <point x="328" y="454" type="curve" smooth="yes"/>
      <point x="328" y="483"/>
      <point x="281" y="528"/>
    </contour>
    <contour>
      <point x="328" y="0" type="line"/>
      <point x="328" y="161"/>
      <point x="328" y="293"/>
      <point x="328" y="454" type="curve" smooth="yes"/>
      <point x="328" y="460"/>
      <point x="326" y="463"/>
      <point x="322" y="467" type="curve" smooth="yes"/>
      <point x="314" y="475"/>
      <point x="302" y="481"/>
      <point x="285" y="481" type="curve" smooth="yes"/>
      <point x="272" y="481" type="line"/>
      <point x="272" y="374"/>
      <point x="272" y="296"/>
      <point x="272" y="188" type="curve" smooth="yes"/>
      <point x="272" y="135"/>
      <point x="272" y="81"/>
      <point x="272" y="27" type="curve" smooth="yes"/>
      <point x="272" y="22"/>
      <point x="274" y="18"/>
      <point x="278" y="14" type="curve" smooth="yes"/>
      <point x="287" y="5"/>
      <point x="298" y="0"/>
      <point x="315" y="0" type="curve" smooth="yes"/>
    </contour>
    <contour>
      <point x="471" y="528" type="curve" smooth="yes"/>
      <point x="421" y="528"/>
      <point x="374" y="494"/>
      <point x="328" y="430" type="curve" smooth="yes"/>
      <point x="310" y="404"/>
      <point x="309" y="379"/>
      <point x="315" y="358" type="curve"/>
      <point x="370" y="429"/>
      <point x="412" y="457"/>
      <point x="447" y="457" type="curve" smooth="yes"/>
      <point x="477" y="457"/>
      <point x="498" y="439"/>
      <point x="520" y="409" type="curve"/>
      <point x="545" y="415"/>
      <point x="550" y="432"/>
      <point x="550" y="454" type="curve" smooth="yes"/>
      <point x="550" y="479"/>
      <point x="502" y="528"/>
    </contour>
    <contour>
      <point x="550" y="-10" type="line"/>
      <point x="550" y="155"/>
      <point x="550" y="289"/>
      <point x="550" y="454" type="curve" smooth="yes"/>
      <point x="550" y="460"/>
      <point x="548" y="463"/>
      <point x="544" y="467" type="curve" smooth="yes"/>
      <point x="535" y="476"/>
      <point x="517" y="481"/>
      <point x="494" y="481" type="curve" smooth="yes"/>
      <point x="481" y="481" type="line"/>
      <point x="481" y="374"/>
      <point x="481" y="296"/>
      <point x="481" y="188" type="curve" smooth="yes"/>
      <point x="481" y="132"/>
      <point x="481" y="75"/>
      <point x="481" y="19" type="curve" smooth="yes"/>
      <point x="481" y="14"/>
      <point x="483" y="10"/>
      <point x="487" y="6" type="curve" smooth="yes"/>
      <point x="498" y="-5"/>
      <point x="514" y="-10"/>
      <point x="537" y="-10" type="curve" smooth="yes"/>
    </contour>
  </outline>
</glyph>
<glyph name="n" format="1">
  <advance width="600"/>
  <unicode hex="006E"/>
  <outline>
    <contour>
      <point x="165" y="-10" type="line"/>
      <point x="165" y="158"/>
      <point x="165" y="325"/>
      <point x="165" y="493" type="curve" smooth="yes"/>
      <point x="165" y="498"/>
      <point x="163" y="502"/>
      <point x="159" y="506" type="curve" smooth="yes"/>
      <point x="150" y="515"/>
      <point x="128" y="520"/>
      <point x="106" y="520" type="curve" smooth="yes"/>
      <point x="93" y="520" type="line"/>
      <point x="93" y="410"/>
      <point x="93" y="298"/>
      <point x="93" y="188" type="curve" smooth="yes"/>
      <point x="93" y="132"/>
      <point x="93" y="75"/>
      <point x="93" y="19" type="curve" smooth="yes"/>
      <point x="93" y="14"/>
      <point x="95" y="10"/>
      <point x="99" y="6" type="curve" smooth="yes"/>
      <point x="110" y="-5"/>
      <point x="130" y="-10"/>
      <point x="152" y="-10" type="curve" smooth="yes"/>
    </contour>
    <contour>
      <point x="380" y="528" type="curve" smooth="yes"/>
      <point x="298" y="528"/>
      <point x="213" y="475"/>
      <point x="161" y="406" type="curve" smooth="yes"/>
      <point x="142" y="382"/>
      <point x="136" y="360"/>
      <point x="137" y="327" type="curve"/>
      <point x="235" y="428"/>
      <point x="295" y="456"/>
      <point x="377" y="456" type="curve" smooth="yes"/>
      <point x="414" y="456"/>
      <point x="452" y="434"/>
      <point x="480" y="388" type="curve"/>
      <point x="498" y="392"/>
      <point x="507" y="405"/>
      <point x="507" y="416" type="curve" smooth="yes"/>
      <point x="507" y="462"/>
      <point x="441" y="528"/>
    </contour>
    <contour>
      <point x="507" y="-10" type="line"/>
      <point x="507" y="149"/>
      <point x="507" y="257"/>
      <point x="507" y="416" type="curve" smooth="yes"/>
      <point x="507" y="422"/>
      <point x="505" y="425"/>
      <point x="501" y="429" type="curve" smooth="yes"/>
      <point x="490" y="441"/>
      <point x="470" y="445"/>
      <point x="448" y="445" type="curve" smooth="yes"/>
      <point x="435" y="445" type="line"/>
      <point x="435" y="343"/>
      <point x="435" y="290"/>
      <point x="435" y="188" type="curve" smooth="yes"/>
      <point x="435" y="132"/>
      <point x="435" y="75"/>
      <point x="435" y="19" type="curve" smooth="yes"/>
      <point x="435" y="14"/>
      <point x="437" y="10"/>
      <point x="441" y="6" type="curve" smooth="yes"/>
      <point x="452" y="-5"/>
      <point x="472" y="-10"/>
      <point x="494" y="-10" type="curve" smooth="yes"/>
    </contour>
  </outline>
</glyph>
<glyph name="o" format="1">
  <advance width="600"/>
  <unicode hex="006F"/>
  <outline>
    <contour>
      <point x="298" y="530" type="curve" smooth="yes"/>
      <point x="166" y="530"/>
      <point x="62" y="422"/>
      <point x="62" y="272" type="curve" smooth="yes"/>
      <point x="62" y="224" type="line" smooth="yes"/>
      <point x="62" y="85"/>
      <point x="158" y="-20"/>
      <point x="287" y="-20" type="curve" smooth="yes"/>
      <point x="302" y="-20" type="line" smooth="yes"/>
      <point x="322" y="-20"/>
      <point x="329" y="2"/>
      <point x="329" y="23" type="curve"/>
      <point x="166" y="40"/>
      <point x="132" y="151"/>
      <point x="132" y="223" type="curve" smooth="yes"/>
      <point x="132" y="266" type="line" smooth="yes"/>
      <point x="132" y="361"/>
      <point x="194" y="460"/>
      <point x="312" y="460" type="curve" smooth="yes"/>
      <point x="360" y="460"/>
      <point x="396" y="451"/>
      <point x="433" y="434" type="curve"/>
      <point x="441" y="437"/>
      <point x="444" y="442"/>
      <point x="444" y="452" type="curve"/>
      <point x="444" y="486"/>
      <point x="377" y="530"/>
    </contour>
    <contour>
      <point x="302" y="-20" type="curve" smooth="yes"/>
      <point x="434" y="-20"/>
      <point x="538" y="88"/>
      <point x="538" y="238" type="curve" smooth="yes"/>
      <point x="538" y="286" type="line" smooth="yes"/>
      <point x="538" y="425"/>
      <point x="442" y="530"/>
      <point x="313" y="530" type="curve" smooth="yes"/>
      <point x="298" y="530" type="line" smooth="yes"/>
      <point x="278" y="530"/>
      <point x="271" y="508"/>
      <point x="271" y="487" type="curve"/>
      <point x="434" y="470"/>
      <point x="468" y="359"/>
      <point x="468" y="287" type="curve" smooth="yes"/>
      <point x="468" y="244" type="line" smooth="yes"/>
      <point x="468" y="149"/>
      <point x="407" y="50"/>
      <point x="288" y="50" type="curve" smooth="yes"/>
      <point x="240" y="50"/>
      <point x="204" y="59"/>
      <point x="167" y="76" type="curve"/>
      <point x="159" y="73"/>
      <point x="156" y="68"/>
      <point x="156" y="58" type="curve"/>
      <point x="156" y="24"/>
      <point x="223" y="-20"/>
    </contour>
  </outline>
</glyph>
<glyph name="p" format="1">
  <advance width="600"/>
  <unicode hex="0070"/>
  <outline>
    <contour>
      <point x="165" y="-245" type="line"/>
      <point x="165" y="-57"/>
      <point x="165" y="297"/>
      <point x="165" y="485" type="curve" smooth="yes"/>
      <point x="165" y="490"/>
      <point x="163" y="494"/>
      <point x="159" y="498" type="curve" smooth="yes"/>
      <point x="150" y="507"/>
      <point x="128" y="512"/>
      <point x="106" y="512" type="curve" smooth="yes"/>
      <point x="93" y="512" type="line"/>
      <point x="93" y="404"/>
      <point x="93" y="296"/>
      <point x="93" y="188" type="curve" smooth="yes"/>
      <point x="93" y="113"/>
      <point x="93" y="-140"/>
      <point x="93" y="-216" type="curve" smooth="yes"/>
      <point x="93" y="-221"/>
      <point x="95" y="-225"/>
      <point x="99" y="-229" type="curve" smooth="yes"/>
      <point x="110" y="-240"/>
      <point x="130" y="-245"/>
      <point x="152" y="-245" type="curve" smooth="yes"/>
    </contour>
    <contour>
      <point x="374" y="528" type="curve" smooth="yes"/>
      <point x="293" y="528"/>
      <point x="214" y="477"/>
      <point x="161" y="406" type="curve" smooth="yes"/>
      <point x="142" y="382"/>
      <point x="136" y="360"/>
      <point x="137" y="327" type="curve"/>
      <point x="234" y="427"/>
      <point x="291" y="456"/>
      <point x="371" y="456" type="curve" smooth="yes"/>
      <point x="435" y="456"/>
      <point x="483" y="397"/>
      <point x="496" y="307" type="curve"/>
      <point x="530" y="310"/>
      <point x="540" y="321"/>
      <point x="540" y="331" type="curve" smooth="yes"/>
      <point x="540" y="442"/>
      <point x="460" y="528"/>
    </contour>
    <contour>
      <point x="310" y="-20" type="curve" smooth="yes"/>
      <point x="464" y="-20"/>
      <point x="540" y="97"/>
      <point x="540" y="296" type="curve" smooth="yes"/>
      <point x="540" y="331" type="line" smooth="yes"/>
      <point x="540" y="379"/>
      <point x="500" y="451"/>
      <point x="465" y="451" type="curve"/>
      <point x="448" y="451"/>
      <point x="436" y="448"/>
      <point x="435" y="438" type="curve"/>
      <point x="456" y="398"/>
      <point x="467" y="370"/>
      <point x="467" y="319" type="curve" smooth="yes"/>
      <point x="467" y="296" type="line" smooth="yes"/>
      <point x="467" y="148"/>
      <point x="411" y="49"/>
      <point x="295" y="49" type="curve" smooth="yes"/>
      <point x="241" y="49"/>
      <point x="205" y="59"/>
      <point x="156" y="79" type="curve"/>
      <point x="150" y="79"/>
      <point x="148" y="74"/>
      <point x="148" y="68" type="curve"/>
      <point x="148" y="34"/>
      <point x="232" y="-20"/>
    </contour>
  </outline>
</glyph>
<glyph name="q" format="1">
  <advance width="600"/>
  <unicode hex="0071"/>
  <outline>
    <contour>
      <point x="507" y="-245" type="line"/>
      <point x="507" y="-56"/>
      <point x="507" y="303"/>
      <point x="507" y="493" type="curve" smooth="yes"/>
      <point x="507" y="498"/>
      <point x="505" y="502"/>
      <point x="501" y="506" type="curve" smooth="yes"/>
      <point x="492" y="515"/>
      <point x="470" y="520"/>
      <point x="448" y="520" type="curve" smooth="yes"/>
      <point x="435" y="520" type="line"/>
      <point x="435" y="384"/>
      <point x="435" y="248"/>
      <point x="435" y="112" type="curve" smooth="yes"/>
      <point x="435" y="45"/>
      <point x="435" y="-149"/>
      <point x="435" y="-216" type="curve" smooth="yes"/>
      <point x="435" y="-221"/>
      <point x="437" y="-225"/>
      <point x="441" y="-229" type="curve" smooth="yes"/>
      <point x="452" y="-240"/>
      <point x="472" y="-245"/>
      <point x="494" y="-245" type="curve" smooth="yes"/>
    </contour>
    <contour>
      <point x="290" y="530" type="curve" smooth="yes"/>
      <point x="152" y="530"/>
      <point x="68" y="404"/>
      <point x="68" y="212" type="curve" smooth="yes"/>
      <point x="68" y="183" type="line" smooth="yes"/>
      <point x="68" y="138"/>
      <point x="100" y="70"/>
      <point x="133" y="70" type="curve"/>
      <point x="146" y="70"/>
      <point x="155" y="73"/>
      <point x="157" y="83" type="curve"/>
      <point x="148" y="112"/>
      <point x="141" y="146"/>
      <point x="141" y="199" type="curve" smooth="yes"/>
      <point x="141" y="220" type="line" smooth="yes"/>
      <point x="141" y="358"/>
      <point x="196" y="461"/>
      <point x="292" y="461" type="curve" smooth="yes"/>
      <point x="359" y="461"/>
      <point x="392" y="439"/>
      <point x="451" y="375" type="curve"/>
      <point x="458" y="376"/>
      <point x="461" y="386"/>
      <point x="458" y="394" type="curve"/>
      <point x="452" y="445"/>
      <point x="374" y="530"/>
    </contour>
    <contour>
      <point x="226" y="-18" type="curve" smooth="yes"/>
      <point x="306" y="-18"/>
      <point x="390" y="31"/>
      <point x="439" y="96" type="curve" smooth="yes"/>
      <point x="458" y="120"/>
      <point x="464" y="142"/>
      <point x="463" y="175" type="curve"/>
      <point x="369" y="79"/>
      <point x="309" y="54"/>
      <point x="229" y="54" type="curve" smooth="yes"/>
      <point x="157" y="54"/>
      <point x="125" y="132"/>
      <point x="106" y="226" type="curve"/>
      <point x="76" y="223"/>
      <point x="68" y="203"/>
      <point x="68" y="183" type="curve" smooth="yes"/>
      <point x="68" y="81"/>
      <point x="124" y="-18"/>
    </contour>
  </outline>
</glyph>
<glyph name="r" format="1">
  <advance width="600"/>
  <unicode hex="0072"/>
  <outline>
    <contour>
      <point x="401" y="530" type="curve" smooth="yes"/>
      <point x="332" y="530"/>
      <point x="263" y="472"/>
      <point x="216" y="408" type="curve" smooth="yes"/>
      <point x="198" y="383"/>
      <point x="191" y="361"/>
      <point x="192" y="327" type="curve"/>
      <point x="284" y="422"/>
      <point x="327" y="456"/>
      <point x="398" y="456" type="curve" smooth="yes"/>
      <point x="435" y="456"/>
      <point x="473" y="434"/>
      <point x="501" y="388" type="curve"/>
      <point x="519" y="392"/>
      <point x="528" y="405"/>
      <point x="528" y="416" type="curve" smooth="yes"/>
      <point x="528" y="463"/>
      <point x="462" y="530"/>
    </contour>
    <contour>
      <point x="528" y="237" type="line"/>
      <point x="528" y="304"/>
      <point x="528" y="349"/>
      <point x="528" y="416" type="curve" smooth="yes"/>
      <point x="528" y="422"/>
      <point x="526" y="425"/>
      <point x="522" y="429" type="curve" smooth="yes"/>
      <point x="511" y="441"/>
      <point x="491" y="445"/>
      <point x="469" y="445" type="curve" smooth="yes"/>
      <point x="456" y="445" type="line"/>
      <point x="456" y="379"/>
      <point x="456" y="333"/>
      <point x="456" y="266" type="curve" smooth="yes"/>
      <point x="456" y="261"/>
      <point x="458" y="257"/>
      <point x="462" y="253" type="curve" smooth="yes"/>
      <point x="473" y="242"/>
      <point x="493" y="237"/>
      <point x="515" y="237" type="curve" smooth="yes"/>
    </contour>
    <contour>
      <point x="45" y="510" type="curve"/>
      <point x="45" y="497" type="line" smooth="yes"/>
      <point x="45" y="471"/>
      <point x="49" y="455"/>
      <point x="58" y="446" type="curve" smooth="yes"/>
      <point x="62" y="442"/>
      <point x="66" y="440"/>
      <point x="71" y="440" type="curve"/>
      <point x="133" y="440"/>
      <point x="124" y="440"/>
      <point x="185" y="440" type="curve"/>
      <point x="185" y="453" type="line" smooth="yes"/>
      <point x="185" y="471"/>
      <point x="178" y="491"/>
      <point x="164" y="504" type="curve" smooth="yes"/>
      <point x="161" y="508"/>
      <point x="157" y="510"/>
      <point x="151" y="510" type="curve" smooth="yes"/>
      <point x="128" y="510"/>
      <point x="68" y="510"/>
    </contour>
    <contour>
      <point x="220" y="-10" type="line"/>
      <point x="220" y="118"/>
      <point x="220" y="245"/>
      <point x="220" y="373" type="curve"/>
      <point x="220" y="456"/>
      <point x="199" y="510"/>
      <point x="163" y="510" type="curve" smooth="yes"/>
      <point x="148" y="510" type="line"/>
      <point x="148" y="412"/>
      <point x="148" y="282"/>
      <point x="148" y="196" type="curve" smooth="yes"/>
      <point x="148" y="136"/>
      <point x="148" y="77"/>
      <point x="148" y="19" type="curve"/>
      <point x="148" y="14"/>
      <point x="150" y="10"/>
      <point x="154" y="6" type="curve" smooth="yes"/>
      <point x="165" y="-5"/>
      <point x="185" y="-10"/>
      <point x="207" y="-10" type="curve" smooth="yes"/>
    </contour>
  </outline>
</glyph>
<glyph name="s" format="1">
  <advance width="600"/>
  <unicode hex="0073"/>
  <outline>
    <contour>
      <point x="376" y="530" type="curve" smooth="yes"/>
      <point x="246" y="530"/>
      <point x="95" y="446"/>
      <point x="95" y="354" type="curve" smooth="yes"/>
      <point x="95" y="337" type="line" smooth="yes"/>
      <point x="95" y="299"/>
      <point x="146" y="293"/>
      <point x="171" y="293" type="curve"/>
      <point x="166" y="311"/>
      <point x="165" y="328"/>
      <point x="165" y="342" type="curve" smooth="yes"/>
      <point x="165" y="407"/>
      <point x="280" y="460"/>
      <point x="373" y="460" type="curve" smooth="yes"/>
      <point x="430" y="460"/>
      <point x="465" y="453"/>
      <point x="491" y="438" type="curve"/>
      <point x="505" y="438" type="line"/>
      <point x="505" y="492" type="line"/>
      <point x="505" y="515"/>
      <point x="453" y="530"/>
    </contour>
    <contour>
      <point x="379" y="262" type="curve" smooth="yes"/>
      <point x="287" y="279" type="line" smooth="yes"/>
      <point x="180" y="299"/>
      <point x="165" y="318"/>
      <point x="165" y="342" type="curve" smooth="yes"/>
      <point x="165" y="353"/>
      <point x="166" y="372"/>
      <point x="175" y="391" type="curve"/>
      <point x="124" y="381"/>
      <point x="95" y="365"/>
      <point x="95" y="337" type="curve"/>
      <point x="95" y="283"/>
      <point x="139" y="247"/>
      <point x="256" y="223" type="curve" smooth="yes"/>
      <point x="353" y="203" type="line" smooth="yes"/>
      <point x="444" y="185"/>
      <point x="477" y="155"/>
      <point x="489" y="106" type="curve"/>
      <point x="516" y="101"/>
      <point x="529" y="124"/>
      <point x="529" y="141" type="curve"/>
      <point x="529" y="196"/>
      <point x="483" y="242"/>
    </contour>
    <contour>
      <point x="306" y="-20" type="line" smooth="yes"/>
      <point x="441" y="-20"/>
      <point x="529" y="33"/>
      <point x="529" y="111" type="curve" smooth="yes"/>
      <point x="529" y="141" type="line"/>
      <point x="529" y="156"/>
      <point x="504" y="160"/>
      <point x="484" y="150" type="curve"/>
      <point x="480" y="83"/>
      <point x="427" y="50"/>
      <point x="300" y="50" type="curve" smooth="yes"/>
      <point x="196" y="50"/>
      <point x="141" y="66"/>
      <point x="85" y="115" type="curve"/>
      <point x="72" y="115" type="line"/>
      <point x="72" y="99"/>
      <point x="72" y="82"/>
      <point x="72" y="65" type="curve"/>
      <point x="72" y="18"/>
      <point x="160" y="-20"/>
      <point x="290" y="-20" type="curve" smooth="yes"/>
    </contour>
  </outline>
</glyph>
<glyph name="t" format="1">
  <advance width="600"/>
  <unicode hex="0074"/>
  <outline>
    <contour>
      <point x="528" y="120" type="line"/>
      <point x="516" y="120" type="line"/>
      <point x="470" y="70"/>
      <point x="417" y="50"/>
      <point x="353" y="50" type="curve" smooth="yes"/>
      <point x="306" y="50"/>
      <point x="277" y="57"/>
      <point x="239" y="95" type="curve"/>
      <point x="222" y="90"/>
      <point x="220" y="47"/>
      <point x="246" y="21" type="curve" smooth="yes"/>
      <point x="276" y="-9"/>
      <point x="299" y="-20"/>
      <point x="335" y="-20" type="curve" smooth="yes"/>
      <point x="343" y="-20"/>
      <point x="358" y="-20"/>
      <point x="366" y="-20" type="curve" smooth="yes"/>
      <point x="424" y="-20"/>
      <point x="478" y="0"/>
      <point x="507" y="29" type="curve" smooth="yes"/>
      <point x="521" y="43"/>
      <point x="528" y="60"/>
      <point x="528" y="79" type="curve"/>
    </contour>
    <contour>
      <point x="45" y="510" type="curve"/>
      <point x="45" y="489" type="line" smooth="yes"/>
      <point x="45" y="471"/>
      <point x="49" y="456"/>
      <point x="59" y="446" type="curve" smooth="yes"/>
      <point x="63" y="442"/>
      <point x="67" y="440"/>
      <point x="72" y="440" type="curve"/>
      <point x="141" y="440"/>
      <point x="213" y="440"/>
      <point x="282" y="440" type="curve"/>
      <point x="362" y="440"/>
      <point x="450" y="440"/>
      <point x="530" y="440" type="curve"/>
      <point x="530" y="453" type="line" smooth="yes"/>
      <point x="530" y="475"/>
      <point x="525" y="493"/>
      <point x="514" y="504" type="curve" smooth="yes"/>
      <point x="510" y="508"/>
      <point x="506" y="510"/>
      <point x="501" y="510" type="curve" smooth="yes"/>
      <point x="352" y="510"/>
      <point x="194" y="510"/>
    </contour>
    <contour>
      <point x="259" y="684" type="curve" smooth="yes"/>
      <point x="248" y="695"/>
      <point x="230" y="700"/>
      <point x="208" y="700" type="curve" smooth="yes"/>
      <point x="195" y="700" type="line"/>
      <point x="195" y="130" type="line" smooth="yes"/>
      <point x="195" y="85"/>
      <point x="216" y="51"/>
      <point x="246" y="21" type="curve"/>
      <point x="262" y="5"/>
      <point x="282" y="13"/>
      <point x="286" y="34" type="curve"/>
      <point x="271" y="66"/>
      <point x="265" y="104"/>
      <point x="265" y="161" type="curve" smooth="yes"/>
      <point x="265" y="671" type="line" smooth="yes"/>
      <point x="265" y="676"/>
      <point x="263" y="680"/>
    </contour>
  </outline>
</glyph>
<glyph name="u" format="1">
  <advance width="600"/>
  <unicode hex="0075"/>
  <outline>
    <contour>
      <point x="435" y="520" type="line"/>
      <point x="435" y="353"/>
      <point x="435" y="185"/>
      <point x="435" y="17" type="curve" smooth="yes"/>
      <point x="435" y="12"/>
      <point x="437" y="8"/>
      <point x="441" y="4" type="curve" smooth="yes"/>
      <point x="450" y="-5"/>
      <point x="472" y="-10"/>
      <point x="494" y="-10" type="curve" smooth="yes"/>
      <point x="507" y="-10" type="line"/>
      <point x="507" y="100"/>
      <point x="507" y="212"/>
      <point x="507" y="322" type="curve" smooth="yes"/>
      <point x="507" y="378"/>
      <point x="507" y="435"/>
      <point x="507" y="491" type="curve" smooth="yes"/>
      <point x="507" y="496"/>
      <point x="505" y="500"/>
      <point x="501" y="504" type="curve" smooth="yes"/>
      <point x="490" y="515"/>
      <point x="470" y="520"/>
      <point x="448" y="520" type="curve" smooth="yes"/>
    </contour>
    <contour>
      <point x="220" y="-18" type="curve" smooth="yes"/>
      <point x="302" y="-18"/>
      <point x="387" y="35"/>
      <point x="439" y="104" type="curve" smooth="yes"/>
      <point x="458" y="128"/>
      <point x="464" y="150"/>
      <point x="463" y="183" type="curve"/>
      <point x="365" y="82"/>
      <point x="305" y="54"/>
      <point x="223" y="54" type="curve" smooth="yes"/>
      <point x="186" y="54"/>
      <point x="148" y="76"/>
      <point x="120" y="122" type="curve"/>
      <point x="102" y="118"/>
      <point x="93" y="105"/>
      <point x="93" y="94" type="curve" smooth="yes"/>
      <point x="93" y="48"/>
      <point x="159" y="-18"/>
    </contour>
    <contour>
      <point x="93" y="520" type="line"/>
      <point x="93" y="361"/>
      <point x="93" y="253"/>
      <point x="93" y="94" type="curve" smooth="yes"/>
      <point x="93" y="88"/>
      <point x="95" y="85"/>
      <point x="99" y="81" type="curve" smooth="yes"/>
      <point x="110" y="69"/>
      <point x="130" y="65"/>
      <point x="152" y="65" type="curve" smooth="yes"/>
      <point x="165" y="65" type="line"/>
      <point x="165" y="167"/>
      <point x="165" y="220"/>
      <point x="165" y="322" type="curve" smooth="yes"/>
      <point x="165" y="378"/>
      <point x="165" y="435"/>
      <point x="165" y="491" type="curve" smooth="yes"/>
      <point x="165" y="496"/>
      <point x="163" y="500"/>
      <point x="159" y="504" type="curve" smooth="yes"/>
      <point x="148" y="515"/>
      <point x="128" y="520"/>
      <point x="106" y="520" type="curve" smooth="yes"/>
    </contour>
  </outline>
</glyph>
<glyph name="v" format="1">
  <advance width="600"/>
  <unicode hex="0076"/>
  <outline>
    <contour>
      <point x="473" y="520" type="curve" smooth="yes"/>
      <point x="460" y="520" type="line"/>
      <point x="436" y="238"/>
      <point x="398" y="136"/>
      <point x="281" y="36" type="curve" smooth="yes"/>
      <point x="266" y="24"/>
      <point x="263" y="-10"/>
      <point x="297" y="-10" type="curve"/>
      <point x="330" y="-10" type="line"/>
      <point x="453" y="87"/>
      <point x="508" y="227"/>
      <point x="529" y="484" type="curve" smooth="yes"/>
      <point x="531" y="503"/>
      <point x="507" y="520"/>
    </contour>
    <contour>
      <point x="81" y="520" type="curve" smooth="yes"/>
      <point x="68" y="520" type="line"/>
      <point x="90" y="248"/>
      <point x="134" y="121"/>
      <point x="237" y="19" type="curve" smooth="yes"/>
      <point x="258" y="-3"/>
      <point x="277" y="-10"/>
      <point x="297" y="-10" type="curve"/>
      <point x="317" y="-10"/>
      <point x="329" y="5"/>
      <point x="329" y="26" type="curve"/>
      <point x="214" y="124"/>
      <point x="163" y="237"/>
      <point x="142" y="495" type="curve" smooth="yes"/>
      <point x="141" y="511"/>
      <point x="115" y="520"/>
    </contour>
  </outline>
</glyph>
<glyph name="w" format="1">
  <advance width="600"/>
  <unicode hex="0077"/>
  <outline>
    <contour>
      <point x="535" y="506" type="curve" smooth="yes"/>
      <point x="527" y="514"/>
      <point x="507" y="520"/>
      <point x="489" y="520" type="curve" smooth="yes"/>
      <point x="477" y="520" type="line"/>
      <point x="477" y="179"/>
      <point x="453" y="134"/>
      <point x="399" y="40" type="curve"/>
      <point x="401" y="1"/>
      <point x="405" y="-10"/>
      <point x="414" y="-10" type="curve" smooth="yes"/>
      <point x="444" y="-10" type="line"/>
      <point x="511" y="114"/>
      <point x="540" y="208"/>
      <point x="540" y="490" type="curve" smooth="yes"/>
      <point x="540" y="498"/>
      <point x="539" y="502"/>
    </contour>
    <contour>
      <point x="122" y="508" type="curve" smooth="yes"/>
      <point x="116" y="514"/>
      <point x="91" y="520"/>
      <point x="71" y="520" type="curve" smooth="yes"/>
      <point x="58" y="520" type="line"/>
      <point x="58" y="185"/>
      <point x="82" y="80"/>
      <point x="156" y="6" type="curve" smooth="yes"/>
      <point x="167" y="-4"/>
      <point x="179" y="-10"/>
      <point x="190" y="-10" type="curve" smooth="yes"/>
      <point x="196" y="-10"/>
      <point x="210" y="16"/>
      <point x="210" y="34" type="curve"/>
      <point x="147" y="106"/>
      <point x="128" y="170"/>
      <point x="128" y="496" type="curve" smooth="yes"/>
      <point x="128" y="500"/>
      <point x="128" y="500"/>
    </contour>
    <contour>
      <point x="284" y="405" type="curve" smooth="yes"/>
      <point x="273" y="405" type="line"/>
      <point x="273" y="215"/>
      <point x="246" y="143"/>
      <point x="176" y="23" type="curve"/>
      <point x="176" y="9"/>
      <point x="179" y="-10"/>
      <point x="190" y="-10" type="curve" smooth="yes"/>
      <point x="211" y="-10" type="line"/>
      <point x="284" y="97"/>
      <point x="320" y="225"/>
      <point x="320" y="369" type="curve" smooth="yes"/>
      <point x="320" y="394"/>
      <point x="307" y="405"/>
    </contour>
    <contour>
      <point x="324" y="393" type="curve" smooth="yes"/>
      <point x="318" y="400"/>
      <point x="302" y="405"/>
      <point x="284" y="405" type="curve" smooth="yes"/>
      <point x="279" y="405" type="line"/>
      <point x="279" y="205"/>
      <point x="303" y="98"/>
      <point x="379" y="1" type="curve" smooth="yes"/>
      <point x="385" y="-6"/>
      <point x="393" y="-10"/>
      <point x="401" y="-10" type="curve" smooth="yes"/>
      <point x="425" y="-10" type="line" smooth="yes"/>
      <point x="432" y="-10"/>
      <point x="436" y="8"/>
      <point x="436" y="28" type="curve"/>
      <point x="370" y="83"/>
      <point x="330" y="201"/>
      <point x="330" y="379" type="curve" smooth="yes"/>
      <point x="330" y="385"/>
      <point x="329" y="388"/>
    </contour>
  </outline>
</glyph>
<glyph name="x" format="1">
  <advance width="600"/>
  <unicode hex="0078"/>
  <outline>
    <contour>
      <point x="526" y="-10" type="curve" smooth="yes"/>
      <point x="546" y="-10"/>
      <point x="554" y="2"/>
      <point x="554" y="34" type="curve"/>
      <point x="554" y="62" type="line"/>
      <point x="492" y="77"/>
      <point x="435" y="109"/>
      <point x="341" y="203" type="curve" smooth="yes"/>
      <point x="273" y="271"/>
      <point x="213" y="346"/>
      <point x="143" y="495" type="curve" smooth="yes"/>
      <point x="139" y="502"/>
      <point x="138" y="504"/>
      <point x="135" y="507" type="curve" smooth="yes"/>
      <point x="127" y="515"/>
      <point x="107" y="520"/>
      <point x="79" y="520" type="curve" smooth="yes"/>
      <point x="58" y="520" type="line"/>
      <point x="116" y="363"/>
      <point x="196" y="244"/>
      <point x="293" y="145" type="curve" smooth="yes"/>
      <point x="395" y="43"/>
      <point x="478" y="-10"/>
    </contour>
    <contour>
      <point x="539" y="502" type="curve" smooth="yes"/>
      <point x="527" y="514"/>
      <point x="504" y="520"/>
      <point x="485" y="520" type="curve" smooth="yes"/>
      <point x="472" y="520" type="line"/>
      <point x="424" y="382"/>
      <point x="380" y="318"/>
      <point x="273" y="236" type="curve"/>
      <point x="264" y="215"/>
      <point x="282" y="199"/>
      <point x="316" y="199" type="curve"/>
      <point x="432" y="289"/>
      <point x="497" y="361"/>
      <point x="541" y="485" type="curve" smooth="yes"/>
      <point x="544" y="493"/>
      <point x="543" y="497"/>
    </contour>
    <contour>
      <point x="52" y="8" type="curve" smooth="yes"/>
      <point x="64" y="-4"/>
      <point x="80" y="-10"/>
      <point x="100" y="-10" type="curve" smooth="yes"/>
      <point x="113" y="-10" type="line"/>
      <point x="149" y="74"/>
      <point x="185" y="119"/>
      <point x="296" y="206" type="curve"/>
      <point x="303" y="225"/>
      <point x="287" y="242"/>
      <point x="254" y="242" type="curve"/>
      <point x="111" y="142"/>
      <point x="52" y="63"/>
      <point x="48" y="21" type="curve" smooth="yes"/>
      <point x="47" y="15"/>
      <point x="48" y="12"/>
    </contour>
  </outline>
</glyph>
<glyph name="y" format="1">
  <advance width="600"/>
  <unicode hex="0079"/>
  <outline>
    <contour>
      <point x="126" y="507" type="curve" smooth="yes"/>
      <point x="117" y="516"/>
      <point x="93" y="520"/>
      <point x="71" y="520" type="curve" smooth="yes"/>
      <point x="58" y="520" type="line"/>
      <point x="71" y="362" type="line" smooth="yes"/>
      <point x="81" y="241"/>
      <point x="108" y="151"/>
      <point x="184" y="75" type="curve" smooth="yes"/>
      <point x="246" y="12"/>
      <point x="315" y="2"/>
      <point x="362" y="2" type="curve"/>
      <point x="378" y="2"/>
      <point x="403" y="33"/>
      <point x="402" y="61" type="curve"/>
      <point x="342" y="64"/>
      <point x="283" y="71"/>
      <point x="234" y="121" type="curve" smooth="yes"/>
      <point x="176" y="179"/>
      <point x="151" y="242"/>
      <point x="142" y="369" type="curve" smooth="yes"/>
      <point x="133" y="491" type="line" smooth="yes"/>
      <point x="132" y="500"/>
      <point x="130" y="503"/>
    </contour>
    <contour>
      <point x="535" y="499" type="curve" smooth="yes"/>
      <point x="525" y="509"/>
      <point x="505" y="520"/>
      <point x="483" y="520" type="curve" smooth="yes"/>
      <point x="470" y="520" type="line"/>
      <point x="458" y="373" type="line" smooth="yes"/>
      <point x="440" y="161"/>
      <point x="383" y="30"/>
      <point x="248" y="-104" type="curve" smooth="yes"/>
      <point x="215" y="-138"/>
      <point x="182" y="-171"/>
      <point x="132" y="-210" type="curve"/>
      <point x="132" y="-233"/>
      <point x="141" y="-250"/>
      <point x="163" y="-250" type="curve" smooth="yes"/>
      <point x="191" y="-250"/>
      <point x="223" y="-235"/>
      <point x="265" y="-192" type="curve" smooth="yes"/>
      <point x="433" y="-24"/>
      <point x="510" y="133"/>
      <point x="529" y="358" type="curve" smooth="yes"/>
      <point x="539" y="480" type="line" smooth="yes"/>
      <point x="540" y="490"/>
      <point x="539" y="495"/>
    </contour>
    <contour>
      <point x="54" y="-180" type="curve"/>
      <point x="54" y="-193" type="line" smooth="yes"/>
      <point x="54" y="-215"/>
      <point x="59" y="-233"/>
      <point x="70" y="-244" type="curve" smooth="yes"/>
      <point x="74" y="-248"/>
      <point x="78" y="-250"/>
      <point x="83" y="-250" type="curve"/>
      <point x="127" y="-250"/>
      <point x="120" y="-250"/>
      <point x="163" y="-250" type="curve" smooth="yes"/>
      <point x="195" y="-250"/>
      <point x="220" y="-221"/>
      <point x="227" y="-180" type="curve"/>
      <point x="158" y="-180"/>
      <point x="119" y="-180"/>
    </contour>
  </outline>
</glyph>
<glyph name="z" format="1">
  <advance width="600"/>
  <unicode hex="007A"/>
  <outline>
    <contour>
      <point x="74" y="510" type="curve"/>
      <point x="74" y="497" type="line" smooth="yes"/>
      <point x="74" y="474"/>
      <point x="79" y="457"/>
      <point x="90" y="446" type="curve" smooth="yes"/>
      <point x="94" y="442"/>
      <point x="98" y="440"/>
      <point x="103" y="440" type="curve"/>
      <point x="164" y="440"/>
      <point x="201" y="440"/>
      <point x="262" y="440" type="curve" smooth="yes"/>
      <point x="348" y="440"/>
      <point x="440" y="440"/>
      <point x="526" y="440" type="curve"/>
      <point x="526" y="472"/>
      <point x="519" y="491"/>
      <point x="506" y="504" type="curve" smooth="yes"/>
      <point x="502" y="508"/>
      <point x="498" y="510"/>
      <point x="493" y="510" type="curve" smooth="yes"/>
      <point x="347" y="510"/>
      <point x="220" y="510"/>
    </contour>
    <contour>
      <point x="522" y="453" type="curve" smooth="yes"/>
      <point x="507" y="468"/>
      <point x="500" y="477"/>
      <point x="474" y="477" type="curve"/>
      <point x="390" y="321"/>
      <point x="212" y="161"/>
      <point x="74" y="70" type="curve"/>
      <point x="74" y="48"/>
      <point x="90" y="37"/>
      <point x="106" y="37" type="curve" smooth="yes"/>
      <point x="123" y="37"/>
      <point x="133" y="41"/>
      <point x="148" y="49" type="curve" smooth="yes"/>
      <point x="342" y="173"/>
      <point x="526" y="393"/>
      <point x="526" y="440" type="curve" smooth="yes"/>
      <point x="526" y="446"/>
      <point x="525" y="450"/>
    </contour>
    <contour>
      <point x="526" y="0" type="curve"/>
      <point x="526" y="13" type="line" smooth="yes"/>
      <point x="526" y="32"/>
      <point x="519" y="51"/>
      <point x="506" y="64" type="curve" smooth="yes"/>
      <point x="502" y="68"/>
      <point x="498" y="70"/>
      <point x="493" y="70" type="curve" smooth="yes"/>
      <point x="347" y="70"/>
      <point x="220" y="70"/>
      <point x="74" y="70" type="curve"/>
      <point x="74" y="57" type="line" smooth="yes"/>
      <point x="74" y="34"/>
      <point x="79" y="17"/>
      <point x="90" y="6" type="curve" smooth="yes"/>
      <point x="94" y="2"/>
      <point x="98" y="0"/>
      <point x="103" y="0" type="curve"/>
      <point x="164" y="0"/>
      <point x="201" y="0"/>
      <point x="262" y="0" type="curve" smooth="yes"/>
      <point x="348" y="0"/>
      <point x="440" y="0"/>
    </contour>
  </outline>
</glyph>
<glyph name="f.ss01" format="1">
  <advance width="600"/>
  <outline>
    <contour>
      <point x="247" y="634" type="curve"/>
      <point x="283" y="674"/>
      <point x="323" y="688"/>
      <point x="400" y="688" type="curve" smooth="yes"/>
      <point x="457" y="688"/>
      <point x="507" y="673"/>
      <point x="542" y="655" type="curve"/>
      <point x="555" y="655" type="line"/>
      <point x="555" y="673" type="line"/>
      <point x="555" y="698"/>
      <point x="550" y="713"/>
      <point x="543" y="720" type="curve" smooth="yes"/>
      <point x="531" y="733"/>
      <point x="476" y="755"/>
      <point x="418" y="755" type="curve"/>
      <point x="392" y="755" type="line"/>
      <point x="327" y="755"/>
      <point x="281" y="741"/>
      <point x="237" y="697" type="curve" smooth="yes"/>
      <point x="220" y="680"/>
      <point x="226" y="654"/>
    </contour>
    <contour>
      <point x="260" y="16" type="line"/>
      <point x="260" y="198"/>
      <point x="260" y="365"/>
      <point x="260" y="510" type="curve" smooth="yes"/>
      <point x="260" y="599"/>
      <point x="254" y="642"/>
      <point x="294" y="702" type="curve"/>
      <point x="274" y="717"/>
      <point x="250" y="711"/>
      <point x="237" y="697" type="curve" smooth="yes"/>
      <point x="204" y="664"/>
      <point x="190" y="627"/>
      <point x="190" y="553" type="curve"/>
      <point x="190" y="417"/>
      <point x="190" y="231"/>
      <point x="190" y="46" type="curve"/>
      <point x="190" y="40"/>
      <point x="192" y="36"/>
      <point x="196" y="33" type="curve" smooth="yes"/>
      <point x="207" y="21"/>
      <point x="225" y="16"/>
      <point x="247" y="16" type="curve" smooth="yes"/>
    </contour>
    <contour>
      <point x="45" y="510" type="curve"/>
      <point x="45" y="497" type="line" smooth="yes"/>
      <point x="45" y="474"/>
      <point x="50" y="457"/>
      <point x="61" y="446" type="curve" smooth="yes"/>
      <point x="65" y="442"/>
      <point x="69" y="440"/>
      <point x="74" y="440" type="curve"/>
      <point x="134" y="440"/>
      <point x="197" y="440"/>
      <point x="257" y="440" type="curve"/>
      <point x="333" y="440"/>
      <point x="432" y="440"/>
      <point x="505" y="440" type="curve"/>
      <point x="505" y="453" type="line" smooth="yes"/>
      <point x="505" y="476"/>
      <point x="500" y="493"/>
      <point x="489" y="504" type="curve" smooth="yes"/>
      <point x="485" y="508"/>
      <point x="481" y="510"/>
      <point x="476" y="510" type="curve" smooth="yes"/>
      <point x="343" y="510"/>
      <point x="178" y="510"/>
    </contour>
    <contour>
      <point x="50" y="70" type="curve"/>
      <point x="50" y="57" type="line" smooth="yes"/>
      <point x="50" y="34"/>
      <point x="55" y="17"/>
      <point x="66" y="6" type="curve" smooth="yes"/>
      <point x="70" y="2"/>
      <point x="74" y="0"/>
      <point x="79" y="0" type="curve"/>
      <point x="140" y="0"/>
      <point x="201" y="0"/>
      <point x="262" y="0" type="curve"/>
      <point x="350" y="0"/>
      <point x="412" y="0"/>
      <point x="500" y="0" type="curve"/>
      <point x="500" y="13" type="line" smooth="yes"/>
      <point x="500" y="32"/>
      <point x="492" y="52"/>
      <point x="480" y="64" type="curve" smooth="yes"/>
      <point x="476" y="68"/>
      <point x="472" y="70"/>
      <point x="467" y="70" type="curve" smooth="yes"/>
      <point x="319" y="70"/>
      <point x="197" y="70"/>
    </contour>
  </outline>
</glyph>
<glyph name="g.ver02" format="1">
  <advance width="600"/>
  <outline>
    <contour>
      <point x="311" y="465" type="curve" smooth="yes"/>
      <point x="373" y="465"/>
      <point x="434" y="450"/>
      <point x="464" y="420" type="curve"/>
      <point x="487" y="447"/>
      <point x="487" y="466"/>
      <point x="468" y="485" type="curve" smooth="yes"/>
      <point x="434" y="519"/>
      <point x="357" y="530"/>
      <point x="303" y="530" type="curve" smooth="yes"/>
      <point x="175" y="530"/>
      <point x="76" y="463"/>
      <point x="76" y="356" type="curve" smooth="yes"/>
      <point x="76" y="305" type="line" smooth="yes"/>
      <point x="76" y="252"/>
      <point x="89" y="226"/>
      <point x="132" y="182" type="curve" smooth="yes"/>
      <point x="153" y="162"/>
      <point x="182" y="161"/>
      <point x="195" y="176" type="curve"/>
      <point x="154" y="223"/>
      <point x="145" y="236"/>
      <point x="145" y="277" type="curve" smooth="yes"/>
      <point x="145" y="324" type="line" smooth="yes"/>
      <point x="145" y="423"/>
      <point x="207" y="465"/>
    </contour>
    <contour>
      <point x="297" y="196" type="curve" smooth="yes"/>
      <point x="240" y="196"/>
      <point x="178" y="203"/>
      <point x="126" y="234" type="curve"/>
      <point x="116" y="217"/>
      <point x="117" y="199"/>
      <point x="132" y="182" type="curve" smooth="yes"/>
      <point x="176" y="137"/>
      <point x="227" y="130"/>
      <point x="309" y="130" type="curve" smooth="yes"/>
      <point x="443" y="130"/>
      <point x="524" y="210"/>
      <point x="524" y="318" type="curve" smooth="yes"/>
      <point x="524" y="369" type="line" smooth="yes"/>
      <point x="524" y="409"/>
      <point x="511" y="442"/>
      <point x="468" y="485" type="curve" smooth="yes"/>
      <point x="454" y="499"/>
      <point x="414" y="499"/>
      <point x="402" y="487" type="curve"/>
      <point x="448" y="447"/>
      <point x="456" y="427"/>
      <point x="456" y="375" type="curve" smooth="yes"/>
      <point x="456" y="317" type="line" smooth="yes"/>
      <point x="456" y="246"/>
      <point x="394" y="196"/>
    </contour>
    <contour>
      <point x="135" y="65" type="curve" smooth="yes"/>
      <point x="135" y="52" type="line" smooth="yes"/>
      <point x="135" y="-3"/>
      <point x="172" y="-32"/>
      <point x="239" y="-32" type="curve" smooth="yes"/>
      <point x="439" y="-32" type="line" smooth="yes"/>
      <point x="467" y="-32"/>
      <point x="485" y="-53"/>
      <point x="485" y="-79" type="curve" smooth="yes"/>
      <point x="485" y="-125" type="line" smooth="yes"/>
      <point x="485" y="-164"/>
      <point x="480" y="-174"/>
      <point x="460" y="-200" type="curve"/>
      <point x="471" y="-206"/>
      <point x="500" y="-205"/>
      <point x="509" y="-196" type="curve" smooth="yes"/>
      <point x="541" y="-163"/>
      <point x="555" y="-140"/>
      <point x="555" y="-100" type="curve" smooth="yes"/>
      <point x="555" y="-56" type="line" smooth="yes"/>
      <point x="555" y="-5"/>
      <point x="510" y="35"/>
      <point x="451" y="35" type="curve" smooth="yes"/>
      <point x="236" y="35" type="line" smooth="yes"/>
      <point x="212" y="35"/>
      <point x="205" y="42"/>
      <point x="205" y="66" type="curve" smooth="yes"/>
      <point x="205" y="88" type="line" smooth="yes"/>
      <point x="205" y="110"/>
      <point x="219" y="139"/>
      <point x="233" y="153" type="curve"/>
      <point x="233" y="159"/>
      <point x="230" y="162"/>
      <point x="221" y="164" type="curve" smooth="yes"/>
      <point x="193" y="164"/>
      <point x="135" y="106"/>
    </contour>
    <contour>
      <point x="521" y="-140" type="curve"/>
      <point x="453" y="-186"/>
      <point x="410" y="-190"/>
      <point x="329" y="-190" type="curve"/>
      <point x="234" y="-190" type="line"/>
      <point x="171" y="-190"/>
      <point x="137" y="-166"/>
      <point x="137" y="-117" type="curve" smooth="yes"/>
      <point x="137" y="-96" type="line" smooth="yes"/>
      <point x="137" y="-68"/>
      <point x="156" y="-28"/>
      <point x="197" y="-14" type="curve"/>
      <point x="197" y="-6"/>
      <point x="193" y="1"/>
      <point x="185" y="1" type="curve"/>
      <point x="120" y="1"/>
      <point x="70" y="-55"/>
      <point x="70" y="-118" type="curve" smooth="yes"/>
      <point x="70" y="-133" type="line" smooth="yes"/>
      <point x="70" y="-197"/>
      <point x="129" y="-250"/>
      <point x="213" y="-250" type="curve"/>
      <point x="288" y="-250" type="line"/>
      <point x="392" y="-250"/>
      <point x="469" y="-236"/>
      <point x="509" y="-196" type="curve"/>
      <point x="525" y="-179"/>
      <point x="532" y="-150"/>
    </contour>
    <contour>
      <point x="448" y="471" type="curve" smooth="yes"/>
      <point x="515" y="535" type="line" smooth="yes"/>
      <point x="542" y="560"/>
      <point x="555" y="571"/>
      <point x="555" y="604" type="curve" smooth="yes"/>
      <point x="555" y="606"/>
      <point x="555" y="613"/>
      <point x="555" y="616" type="curve" smooth="yes"/>
      <point x="555" y="621"/>
      <point x="553" y="625"/>
      <point x="549" y="629" type="curve" smooth="yes"/>
      <point x="538" y="640"/>
      <point x="519" y="645"/>
      <point x="496" y="645" type="curve" smooth="yes"/>
      <point x="485" y="645" type="line"/>
      <point x="485" y="642"/>
      <point x="485" y="631"/>
      <point x="485" y="628" type="curve" smooth="yes"/>
      <point x="485" y="608"/>
      <point x="479" y="596"/>
      <point x="470" y="579" type="curve" smooth="yes"/>
      <point x="419" y="477" type="line"/>
      <point x="425" y="468"/>
      <point x="440" y="463"/>
    </contour>
  </outline>
</glyph>
<glyph name="i.ss01" format="1">
  <advance width="600"/>
  <outline>
    <contour>
      <point x="50" y="510" type="curve"/>
      <point x="50" y="497" type="line" smooth="yes"/>
      <point x="50" y="475"/>
      <point x="55" y="457"/>
      <point x="66" y="446" type="curve" smooth="yes"/>
      <point x="70" y="442"/>
      <point x="74" y="440"/>
      <point x="79" y="440" type="curve"/>
      <point x="126" y="440"/>
      <point x="171" y="440"/>
      <point x="218" y="440" type="curve"/>
      <point x="249" y="440"/>
      <point x="285" y="440"/>
      <point x="313" y="440" type="curve"/>
      <point x="313" y="453" type="line" smooth="yes"/>
      <point x="313" y="475"/>
      <point x="308" y="493"/>
      <point x="296" y="504" type="curve" smooth="yes"/>
      <point x="293" y="508"/>
      <point x="289" y="510"/>
      <point x="283" y="510" type="curve" smooth="yes"/>
      <point x="210" y="510"/>
      <point x="124" y="510"/>
    </contour>
    <contour>
      <point x="350" y="17" type="line"/>
      <point x="350" y="170"/>
      <point x="350" y="328"/>
      <point x="350" y="483" type="curve" smooth="yes"/>
      <point x="350" y="488"/>
      <point x="348" y="492"/>
      <point x="344" y="496" type="curve" smooth="yes"/>
      <point x="335" y="505"/>
      <point x="315" y="510"/>
      <point x="293" y="510" type="curve" smooth="yes"/>
      <point x="280" y="510" type="line"/>
      <point x="280" y="408"/>
      <point x="280" y="262"/>
      <point x="280" y="202" type="curve"/>
      <point x="280" y="150"/>
      <point x="280" y="98"/>
      <point x="280" y="47" type="curve" smooth="yes"/>
      <point x="280" y="41"/>
      <point x="282" y="37"/>
      <point x="286" y="34" type="curve" smooth="yes"/>
      <point x="297" y="22"/>
      <point x="315" y="17"/>
      <point x="337" y="17" type="curve" smooth="yes"/>
    </contour>
    <contour>
      <point x="50" y="70" type="curve"/>
      <point x="50" y="57" type="line" smooth="yes"/>
      <point x="50" y="35"/>
      <point x="55" y="17"/>
      <point x="66" y="6" type="curve" smooth="yes"/>
      <point x="70" y="2"/>
      <point x="74" y="0"/>
      <point x="79" y="0" type="curve"/>
      <point x="140" y="0"/>
      <point x="201" y="0"/>
      <point x="262" y="0" type="curve"/>
      <point x="350" y="0"/>
      <point x="467" y="0"/>
      <point x="555" y="0" type="curve"/>
      <point x="555" y="13" type="line" smooth="yes"/>
      <point x="555" y="31"/>
      <point x="548" y="51"/>
      <point x="535" y="64" type="curve" smooth="yes"/>
      <point x="531" y="68"/>
      <point x="527" y="70"/>
      <point x="522" y="70" type="curve" smooth="yes"/>
      <point x="374" y="70"/>
      <point x="197" y="70"/>
    </contour>
    <contour>
      <point x="362" y="609" type="line"/>
      <point x="362" y="629"/>
      <point x="362" y="657"/>
      <point x="362" y="677" type="curve" smooth="yes"/>
      <point x="362" y="684"/>
      <point x="361" y="687"/>
      <point x="354" y="694" type="curve" smooth="yes"/>
      <point x="341" y="707"/>
      <point x="327" y="714"/>
      <point x="299" y="714" type="curve"/>
      <point x="262" y="714" type="line"/>
      <point x="262" y="693"/>
      <point x="262" y="667"/>
      <point x="262" y="646" type="curve" smooth="yes"/>
      <point x="262" y="639"/>
      <point x="263" y="636"/>
      <point x="270" y="629" type="curve" smooth="yes"/>
      <point x="283" y="616"/>
      <point x="298" y="609"/>
      <point x="325" y="609" type="curve"/>
    </contour>
  </outline>
</glyph>
<glyph name="l.ss01" format="1">
  <advance width="600"/>
  <outline>
    <contour>
      <point x="50" y="750" type="curve"/>
      <point x="50" y="737" type="line" smooth="yes"/>
      <point x="50" y="715"/>
      <point x="55" y="697"/>
      <point x="66" y="686" type="curve" smooth="yes"/>
      <point x="70" y="682"/>
      <point x="74" y="680"/>
      <point x="79" y="680" type="curve"/>
      <point x="126" y="680"/>
      <point x="171" y="680"/>
      <point x="218" y="680" type="curve" smooth="yes"/>
      <point x="249" y="680"/>
      <point x="285" y="680"/>
      <point x="313" y="680" type="curve"/>
      <point x="313" y="693" type="line" smooth="yes"/>
      <point x="313" y="715"/>
      <point x="308" y="733"/>
      <point x="296" y="744" type="curve" smooth="yes"/>
      <point x="293" y="748"/>
      <point x="289" y="750"/>
      <point x="283" y="750" type="curve" smooth="yes"/>
      <point x="210" y="750"/>
      <point x="124" y="750"/>
    </contour>
    <contour>
      <point x="350" y="17" type="line"/>
      <point x="350" y="186"/>
      <point x="350" y="561"/>
      <point x="350" y="723" type="curve" smooth="yes"/>
      <point x="350" y="728"/>
      <point x="348" y="732"/>
      <point x="344" y="736" type="curve" smooth="yes"/>
      <point x="335" y="745"/>
      <point x="315" y="750"/>
      <point x="293" y="750" type="curve" smooth="yes"/>
      <point x="280" y="750" type="line"/>
      <point x="280" y="641"/>
      <point x="280" y="278"/>
      <point x="280" y="202" type="curve" smooth="yes"/>
      <point x="280" y="150"/>
      <point x="280" y="98"/>
      <point x="280" y="47" type="curve" smooth="yes"/>
      <point x="280" y="41"/>
      <point x="282" y="37"/>
      <point x="286" y="34" type="curve" smooth="yes"/>
      <point x="297" y="22"/>
      <point x="315" y="17"/>
      <point x="337" y="17" type="curve" smooth="yes"/>
    </contour>
    <contour>
      <point x="50" y="70" type="curve"/>
      <point x="50" y="57" type="line" smooth="yes"/>
      <point x="50" y="35"/>
      <point x="55" y="17"/>
      <point x="66" y="6" type="curve" smooth="yes"/>
      <point x="70" y="2"/>
      <point x="74" y="0"/>
      <point x="79" y="0" type="curve"/>
      <point x="140" y="0"/>
      <point x="201" y="0"/>
      <point x="262" y="0" type="curve" smooth="yes"/>
      <point x="350" y="0"/>
      <point x="467" y="0"/>
      <point x="555" y="0" type="curve"/>
      <point x="555" y="13" type="line" smooth="yes"/>
      <point x="555" y="33"/>
      <point x="548" y="51"/>
      <point x="535" y="64" type="curve" smooth="yes"/>
      <point x="531" y="68"/>
      <point x="527" y="70"/>
      <point x="522" y="70" type="curve" smooth="yes"/>
      <point x="374" y="70"/>
      <point x="197" y="70"/>
    </contour>
  </outline>
</glyph>
<glyph name="r.ss01" format="1">
  <advance width="600"/>
  <outline>
    <contour>
      <point x="50" y="510" type="curve"/>
      <point x="50" y="497" type="line" smooth="yes"/>
      <point x="50" y="475"/>
      <point x="55" y="457"/>
      <point x="66" y="446" type="curve" smooth="yes"/>
      <point x="70" y="442"/>
      <point x="74" y="440"/>
      <point x="79" y="440" type="curve"/>
      <point x="116" y="440"/>
      <point x="152" y="440"/>
      <point x="189" y="440" type="curve"/>
      <point x="189" y="453" type="line" smooth="yes"/>
      <point x="189" y="479"/>
      <point x="183" y="510"/>
      <point x="157" y="510" type="curve" smooth="yes"/>
      <point x="121" y="510"/>
      <point x="87" y="510"/>
    </contour>
    <contour>
      <point x="220" y="21" type="line"/>
      <point x="220" y="139"/>
      <point x="220" y="255"/>
      <point x="220" y="373" type="curve"/>
      <point x="220" y="456"/>
      <point x="199" y="510"/>
      <point x="163" y="510" type="curve" smooth="yes"/>
      <point x="150" y="510" type="line"/>
      <point x="150" y="412"/>
      <point x="150" y="282"/>
      <point x="150" y="196" type="curve" smooth="yes"/>
      <point x="150" y="147"/>
      <point x="150" y="98"/>
      <point x="150" y="51" type="curve"/>
      <point x="150" y="45"/>
      <point x="152" y="41"/>
      <point x="156" y="38" type="curve" smooth="yes"/>
      <point x="167" y="26"/>
      <point x="185" y="21"/>
      <point x="207" y="21" type="curve" smooth="yes"/>
    </contour>
    <contour>
      <point x="50" y="70" type="curve"/>
      <point x="50" y="57" type="line" smooth="yes"/>
      <point x="50" y="35"/>
      <point x="55" y="17"/>
      <point x="66" y="6" type="curve" smooth="yes"/>
      <point x="70" y="2"/>
      <point x="74" y="0"/>
      <point x="79" y="0" type="curve"/>
      <point x="140" y="0"/>
      <point x="201" y="0"/>
      <point x="262" y="0" type="curve"/>
      <point x="345" y="0"/>
      <point x="327" y="0"/>
      <point x="410" y="0" type="curve"/>
      <point x="410" y="13" type="line" smooth="yes"/>
      <point x="410" y="35"/>
      <point x="405" y="53"/>
      <point x="394" y="64" type="curve" smooth="yes"/>
      <point x="390" y="68"/>
      <point x="386" y="70"/>
      <point x="381" y="70" type="curve"/>
      <point x="237" y="70"/>
      <point x="194" y="70"/>
    </contour>
    <contour>
      <point x="427" y="530" type="curve" smooth="yes"/>
      <point x="365" y="530"/>
      <point x="270" y="475"/>
      <point x="215" y="399" type="curve" smooth="yes"/>
      <point x="198" y="373"/>
      <point x="192" y="349"/>
      <point x="194" y="319" type="curve"/>
      <point x="294" y="432"/>
      <point x="356" y="459"/>
      <point x="415" y="459" type="curve" smooth="yes"/>
      <point x="450" y="459"/>
      <point x="479" y="436"/>
      <point x="509" y="392" type="curve"/>
      <point x="523" y="398"/>
      <point x="530" y="410"/>
      <point x="530" y="421" type="curve" smooth="yes"/>
      <point x="530" y="463"/>
      <point x="478" y="530"/>
    </contour>
    <contour>
      <point x="530" y="295" type="line"/>
      <point x="530" y="341"/>
      <point x="530" y="375"/>
      <point x="530" y="421" type="curve" smooth="yes"/>
      <point x="530" y="442"/>
      <point x="502" y="468"/>
      <point x="473" y="468" type="curve" smooth="yes"/>
      <point x="460" y="468" type="line"/>
      <point x="460" y="442"/>
      <point x="460" y="420"/>
      <point x="460" y="400" type="curve" smooth="yes"/>
      <point x="460" y="377"/>
      <point x="460" y="351"/>
      <point x="460" y="324" type="curve" smooth="yes"/>
      <point x="460" y="319"/>
      <point x="462" y="315"/>
      <point x="466" y="311" type="curve" smooth="yes"/>
      <point x="477" y="300"/>
      <point x="495" y="295"/>
      <point x="517" y="295" type="curve" smooth="yes"/>
    </contour>
  </outline>
</glyph>
<glyph name="r.ss02" format="1">
  <advance width="600"/>
  <outline>
    <contour>
      <point x="50" y="510" type="curve"/>
      <point x="50" y="497" type="line" smooth="yes"/>
      <point x="50" y="475"/>
      <point x="55" y="457"/>
      <point x="66" y="446" type="curve" smooth="yes"/>
      <point x="70" y="442"/>
      <point x="74" y="440"/>
      <point x="79" y="440" type="curve"/>
      <point x="123" y="440"/>
      <point x="167" y="440"/>
      <point x="211" y="440" type="curve"/>
      <point x="211" y="453" type="line" smooth="yes"/>
      <point x="211" y="479"/>
      <point x="205" y="510"/>
      <point x="179" y="510" type="curve" smooth="yes"/>
      <point x="135" y="510"/>
      <point x="94" y="510"/>
    </contour>
    <contour>
      <point x="242" y="-10" type="line"/>
      <point x="242" y="118"/>
      <point x="242" y="245"/>
      <point x="242" y="373" type="curve"/>
      <point x="242" y="456"/>
      <point x="221" y="510"/>
      <point x="185" y="510" type="curve" smooth="yes"/>
      <point x="170" y="510" type="line"/>
      <point x="170" y="412"/>
      <point x="170" y="282"/>
      <point x="170" y="196" type="curve" smooth="yes"/>
      <point x="170" y="136"/>
      <point x="170" y="77"/>
      <point x="170" y="19" type="curve"/>
      <point x="170" y="14"/>
      <point x="172" y="10"/>
      <point x="176" y="6" type="curve" smooth="yes"/>
      <point x="187" y="-5"/>
      <point x="207" y="-10"/>
      <point x="229" y="-10" type="curve" smooth="yes"/>
    </contour>
    <contour>
      <point x="419" y="530" type="curve" smooth="yes"/>
      <point x="366" y="530"/>
      <point x="285" y="478"/>
      <point x="237" y="399" type="curve" smooth="yes"/>
      <point x="221" y="371"/>
      <point x="214" y="345"/>
      <point x="216" y="314" type="curve"/>
      <point x="299" y="431"/>
      <point x="362" y="459"/>
      <point x="415" y="459" type="curve" smooth="yes"/>
      <point x="450" y="459"/>
      <point x="479" y="436"/>
      <point x="509" y="392" type="curve"/>
      <point x="523" y="398"/>
      <point x="530" y="410"/>
      <point x="530" y="421" type="curve" smooth="yes"/>
      <point x="530" y="463"/>
      <point x="474" y="530"/>
    </contour>
    <contour>
      <point x="530" y="250" type="line"/>
      <point x="530" y="312"/>
      <point x="530" y="358"/>
      <point x="530" y="421" type="curve" smooth="yes"/>
      <point x="530" y="442"/>
      <point x="502" y="468"/>
      <point x="473" y="468" type="curve" smooth="yes"/>
      <point x="460" y="468" type="line"/>
      <point x="460" y="442"/>
      <point x="460" y="420"/>
      <point x="460" y="400" type="curve" smooth="yes"/>
      <point x="460" y="363"/>
      <point x="460" y="323"/>
      <point x="460" y="279" type="curve" smooth="yes"/>
      <point x="460" y="274"/>
      <point x="462" y="270"/>
      <point x="466" y="266" type="curve" smooth="yes"/>
      <point x="477" y="255"/>
      <point x="495" y="250"/>
      <point x="517" y="250" type="curve" smooth="yes"/>
    </contour>
  </outline>
</glyph>
<glyph name="s.alt1" format="1">
  <advance width="600"/>
  <outline>
    <contour>
      <point x="379" y="246" type="curve" smooth="yes"/>
      <point x="287" y="263" type="line" smooth="yes"/>
      <point x="180" y="284"/>
      <point x="165" y="304"/>
      <point x="165" y="329" type="curve" smooth="yes"/>
      <point x="165" y="340"/>
      <point x="168" y="355"/>
      <point x="175" y="370" type="curve"/>
      <point x="124" y="370"/>
      <point x="95" y="348"/>
      <point x="95" y="317" type="curve"/>
      <point x="95" y="267"/>
      <point x="142" y="235"/>
      <point x="260" y="212" type="curve" smooth="yes"/>
      <point x="353" y="193" type="line" smooth="yes"/>
      <point x="443" y="175"/>
      <point x="479" y="153"/>
      <point x="495" y="107" type="curve"/>
      <point x="519" y="107"/>
      <point x="529" y="120"/>
      <point x="529" y="145" type="curve"/>
      <point x="529" y="190"/>
      <point x="483" y="226"/>
    </contour>
    <contour>
      <point x="300" y="-20" type="curve" smooth="yes"/>
      <point x="438" y="-20"/>
      <point x="529" y="33"/>
      <point x="529" y="114" type="curve" smooth="yes"/>
      <point x="529" y="145" type="line"/>
      <point x="529" y="164"/>
      <point x="506" y="169"/>
      <point x="490" y="159" type="curve"/>
      <point x="480" y="88"/>
      <point x="423" y="50"/>
      <point x="300" y="50" type="curve" smooth="yes"/>
      <point x="194" y="50"/>
      <point x="145" y="66"/>
      <point x="90" y="115" type="curve"/>
      <point x="72" y="115" type="line"/>
      <point x="72" y="101"/>
      <point x="72" y="86"/>
      <point x="72" y="70" type="curve"/>
      <point x="71" y="18"/>
      <point x="168" y="-20"/>
    </contour>
    <contour>
      <point x="395" y="530" type="curve" smooth="yes"/>
      <point x="272" y="530"/>
      <point x="95" y="421"/>
      <point x="95" y="347" type="curve" smooth="yes"/>
      <point x="95" y="317" type="line" smooth="yes"/>
      <point x="95" y="286"/>
      <point x="147" y="280"/>
      <point x="176" y="280" type="curve"/>
      <point x="167" y="298"/>
      <point x="165" y="315"/>
      <point x="165" y="329" type="curve" smooth="yes"/>
      <point x="165" y="372"/>
      <point x="311" y="460"/>
      <point x="394" y="460" type="curve" smooth="yes"/>
      <point x="413" y="460"/>
      <point x="435" y="454"/>
      <point x="463" y="440" type="curve"/>
      <point x="483" y="460"/>
      <point x="481" y="481"/>
      <point x="467" y="495" type="curve"/>
      <point x="447" y="517"/>
      <point x="420" y="530"/>
    </contour>
    <contour>
      <point x="505" y="420" type="curve"/>
      <point x="505" y="445"/>
      <point x="491" y="471"/>
      <point x="467" y="495" type="curve"/>
      <point x="455" y="508"/>
      <point x="430" y="499"/>
      <point x="413" y="487" type="curve"/>
      <point x="430" y="458"/>
      <point x="435" y="440"/>
      <point x="435" y="426" type="curve"/>
      <point x="435" y="416"/>
      <point x="435" y="405"/>
      <point x="435" y="394" type="curve"/>
      <point x="435" y="366"/>
      <point x="453" y="350"/>
      <point x="485" y="350" type="curve" smooth="yes"/>
      <point x="505" y="350" type="line"/>
      <point x="505" y="373"/>
      <point x="505" y="397"/>
    </contour>
  </outline>
</glyph>
